<?xml version="1.0" encoding="UTF-8"?>
<svg id="Layer_2" data-name="Layer 2" xmlns="http://www.w3.org/2000/svg" viewBox="0 0 511.35 148.83">
  <defs>
    <style>
      .cls-1 {
        fill: #b2b655;
      }
    </style>
  </defs>
  <g id="Layer_1-2" data-name="Layer 1">
    <g>
      <path class="cls-1" d="M8.41,28.04c-.14.08-.29.15-.43.22s-.28.13-.39.18c-.09.05-.17.07-.23.07-.34,0-.52-.18-.52-.54,0-.19.09-.34.26-.45,2.47-1.36,4.97-3.01,7.51-4.95s3.8-4.58,3.79-7.92c-.02-2.09-.72-4.25-2.11-6.47s-3.5-3.33-6.33-3.33c-1.92,0-3.7.68-5.34,2.03s-2.46,2.86-2.46,4.54.5,3.25,1.5,4.55,2.6,2.11,4.8,2.44c1.77.05,3.19-.32,4.27-1.1.14-.11.31-.28.5-.5s.39-.34.57-.34c.23,0,.38.1.45.3s.02.38-.12.52c-.36.39-.87.79-1.52,1.2-1.03.66-2.21.98-3.54.98-3.55.05-6-.82-7.36-2.61S-.2,12.76.07,9.95,1.62,4.75,3.92,2.78,8.89-.11,11.9.01c2.58.11,4.64.66,6.19,1.66s2.73,2.26,3.54,3.77c.08.17.2.24.38.21.19,0,.3-.09.33-.28.44-1.58,1.26-2.85,2.47-3.82S27.56.1,29.43.1s3.37.57,4.71,1.72,2.32,3.01,2.93,5.59c.45,1.7,1.09,2.54,1.9,2.51.33,0,.52.13.57.39s-.07.46-.39.62l-5.3,2.46c-.17.09-.24.23-.21.4.02.17.12.28.3.33,1.86.42,3.5,1.43,4.91,3.04s2.12,3.55,2.12,5.85c-.06,3.61-2.44,6.8-7.12,9.56-2.58,1.5-5.06,2.38-7.45,2.65s-4.64.03-6.75-.7c-2.41-.84-4.46-2.26-6.18-4.25s-3.4-2.73-5.07-2.21ZM23.92,16.98l9.14-4.31c.14-.11.21-.22.21-.33,0-.16-.06-.27-.19-.35-1.06-.62-1.86-1.98-2.39-4.05-.42-1.53-.95-2.77-1.59-3.73s-1.58-1.37-2.81-1.24c-1.66.38-2.63,1.27-2.92,2.67s-.33,3.01-.13,4.8c.34,2.89-.47,5.5-2.44,7.84s-4.05,4.32-6.26,5.94c1.41-.02,2.87.7,4.38,2.16,1.06,1.05,2.17,2.02,3.32,2.91s2.36,1.63,3.64,2.23c1.61.77,3.22,1.06,4.83.88s2.99-1.02,4.15-2.52c.84-1.09,1.28-2.37,1.3-3.83s-.52-2.93-1.64-4.42-2.51-2.5-4.17-3.05-3.74-.74-6.22-.59c-.34.02-.54-.11-.6-.39s.07-.48.39-.62Z"/>
      <path class="cls-1" d="M60.93,28.96l.02-9.77c0-2.62-.48-4.08-1.43-4.36-.11-.08-.16-.18-.16-.29s.05-.22.16-.32c1.39-1,2.53-2.41,3.44-4.22.06-.14.17-.21.33-.21s.27.07.35.21c.82,1.8,2.01,3.2,3.55,4.2.11.09.16.21.16.34s-.06.23-.19.29c-1.03.3-1.53,1.75-1.5,4.36v8.25c0,1.61.3,2.59.89,2.95.66.44,1.21.27,1.66-.52.17-.3.37-.36.6-.2s.22.43-.01.81c-.47.72-.91,1.45-1.32,2.2s-.83,1.48-1.25,2.2c-.27.45-.63.54-1.1.26-2.32-1.11-3.68-2.52-4.08-4.22-.03-.12-.12-.21-.28-.26s-.27-.02-.33.07c-.89.72-1.78,1.47-2.67,2.26s-1.5,1.51-1.83,2.17c-.27.38-.55.37-.87-.02-.86-1-1.7-1.77-2.52-2.3s-1.91-.96-3.27-1.29c-.3-.11-.44-.24-.42-.4s.12-.27.3-.35c.39-.14.75-.4,1.07-.79s.48-1.02.48-1.91v-9.91c0-1.59-.3-2.57-.89-2.93-.7-.42-1.27-.25-1.69.52-.17.3-.37.36-.59.19s-.21-.45.02-.82c.45-.7.89-1.43,1.3-2.18s.84-1.5,1.28-2.25c.27-.47.62-.55,1.06-.26h.02c2.84,1.48,4.26,3.52,4.26,6.09l-.05,12c0,.45.12.76.35.91l2.01,1.66c.16.14.33.16.54.05,1.26-1,2.08-1.64,2.45-1.92.09-.06.14-.16.14-.3Z"/>
      <path class="cls-1" d="M83.54,26.28c-.02,2.52.45,3.97,1.41,4.36.11.08.16.18.16.32s-.05.23-.16.29c-1.41,1.06-2.55,2.48-3.42,4.24-.09.12-.21.19-.35.19s-.26-.06-.35-.19c-.88-1.77-2.06-3.17-3.56-4.22-.09-.06-.14-.16-.14-.3s.05-.25.16-.33c1.02-.39,1.52-1.84,1.52-4.36v-7.78c0-1.59-.3-2.57-.89-2.93-.69-.45-1.25-.29-1.69.49-.17.33-.37.41-.59.23s-.21-.45.02-.82c.45-.72.89-1.45,1.3-2.2s.84-1.5,1.28-2.25c.25-.45.6-.55,1.05-.28l.02.02c2.3,1.16,3.67,2.57,4.12,4.24.03.17.11.27.23.3.12.03.25,0,.37-.09.86-.72,1.74-1.48,2.64-2.27s1.52-1.53,1.85-2.2c.17-.41.45-.4.84.02.94.98,1.73,1.77,2.4,2.34s1.79,1.01,3.38,1.29c.28.06.43.18.43.36s-.09.3-.29.36c-.41.16-.77.43-1.08.81s-.47,1.02-.47,1.91v9.91c0,1.59.3,2.57.89,2.93.69.42,1.24.25,1.66-.52.17-.3.37-.36.6-.2s.22.43-.01.81c-.47.73-.91,1.47-1.32,2.21s-.83,1.48-1.25,2.21c-.28.44-.63.54-1.05.3-2.83-1.38-4.24-3.41-4.24-6.12l.02-12c0-.47-.12-.77-.35-.91h-.02v-.05l-1.99-1.64c-.17-.12-.35-.13-.54-.02l-2.44,1.9c-.11.08-.16.17-.16.28v9.33Z"/>
      <path class="cls-1" d="M116.21,31.86c-1.12.52-2.48,1.09-4.05,1.72s-2.81,1.28-3.7,1.93c-.33.22-.56.3-.7.26s-.2-.18-.16-.4c.02-.28-.11-.76-.36-1.43s-.57-1.27-.93-1.8c-1-1.45-1.65-2.78-1.95-3.98s-.54-2.63-.73-4.29c-.17-1.59.18-3.1,1.07-4.52s2.04-2.69,3.48-3.8c.91-.69,1.76-1.41,2.55-2.18s1.49-1.7,2.09-2.79c.27-.48.62-.5,1.05-.05,2.34,2.66,4.84,4.26,7.5,4.8.69.17.84.42.45.75-1.44,2.11-2.08,4.26-1.92,6.46s.66,4.42,1.52,6.67v.02l.02.02c1.41,5.14.93,8.87-1.42,11.19s-4.68,3.6-7,3.83c-4,.39-6.65-.64-7.95-3.09-.3-.56-.3-1.09-.01-1.59s.71-.8,1.28-.89c1.11-.19,2.09.53,2.93,2.16,1.16,2.33,2.84,3.04,5.06,2.13,1.91-.8,3-2.17,3.28-4.12s0-4.2-.84-6.73c0-.03,0-.05-.02-.07l-.02-.02c-.09-.23-.27-.3-.52-.19ZM117.57,18.78c-.88-.36-1.91-.91-3.12-1.66s-2.09-1.38-2.65-1.9l-.05-.02v-.05c-.56-.83-1.06-.9-1.5-.21-1.66,2.47-2.31,5.2-1.97,8.18.23,1.98.66,3.81,1.29,5.48s1.59,2.77,2.91,3.28l.02.02h.02c.88.23,2.01-.09,3.4-.98.16-.08.21-.23.16-.45-.66-1.8-.9-3.62-.74-5.47s.96-3.74,2.38-5.66c.14-.25.09-.44-.16-.56Z"/>
      <path class="cls-1" d="M136.44,35.4c-.03-.38-.23-.66-.6-.84s-.68-.38-.93-.56c-1.8-1.22-3.07-2.71-3.81-4.46s-1.16-3.62-1.25-5.59c-.19-4.45,1.02-7.84,3.61-10.17.92-.83,1.98-1.5,3.19-2.03s2.44-.95,3.7-1.28c.39-.08.68.12.87.59l3.38,7.92c.16.42.1.69-.16.8h-.05l-9.61,3.73c-.19.09-.27.24-.23.45.77,3.47,2.05,5.69,3.84,6.67s3.59,1.12,5.37.43c.31-.14.51-.12.6.07s.03.33-.18.42c-1.27.64-2.47,1.3-3.62,1.97s-2.18,1.38-3.08,2.11c-.14.09-.35.12-.62.09s-.41-.13-.41-.3ZM134.26,22.16c.02.12.07.22.16.29s.21.07.35.01l4.99-1.88c.23-.09.3-.26.21-.49l-2.86-7.01c-.14-.34-.42-.39-.84-.14-.91.53-1.52,1.74-1.85,3.63s-.38,3.75-.16,5.58Z"/>
      <path class="cls-1" d="M151.13,4.18c1.22-.78,2.24-1.81,3.07-3.09.25-.38.48-.38.68,0,.73,1.39,1.76,2.42,3.07,3.09.12.06.19.17.19.33,0,1.31-.46,2.85-1.38,4.62s-1.81,3.22-2.67,4.36c-.14.16-.3.2-.47.12-.23-.14-.3-.29-.21-.45.95-1.47,1.34-2.96,1.16-4.49s-1.32-2.8-3.43-3.83c-.42-.16-.42-.38,0-.66Z"/>
      <path class="cls-1" d="M172.34,5.71c2.19-.58,4.2-.45,6.02.4,1.23.59,2.2,1.41,2.88,2.46s.96,2.22.82,3.52-.57,2.26-1.28,2.88-1.29,1.11-1.75,1.45-.88.7-1.29,1.08c-.8.75-.86,1.42-.19,2.02,2.11,1.83,3.32,3.37,3.64,4.62s.1,2.35-.67,3.3c-1.06,1.31-2.19,2.56-3.39,3.74s-2.38,2.37-3.55,3.57c-.58.56-.93.53-1.05-.09-.2-.86-1.12-1.61-2.75-2.26s-3.36-1.27-5.17-1.86c-.33-.12-.35-.36-.07-.7.42-.44.86-.88,1.31-1.31s.91-.87,1.36-1.29c.7-.66.94-1.24.71-1.75s-.64-1.08-1.25-1.72c-1.53-1.59-2.27-3.09-2.21-4.48s.56-2.62,1.51-3.68c.89-.98,1.89-1.89,3.01-2.71s2.18-1.74,3.18-2.75c.12-.11.29-.07.49.12,2.09,1.86,3.84,2.8,5.24,2.81s2.31-.4,2.73-1.24c.42-.86.38-1.75-.12-2.68s-1.31-1.7-2.44-2.31c-1.7-.84-3.57-.92-5.6-.23-.41.16-.65.07-.73-.26s.12-.54.59-.63ZM171.82,21.88c.19.14.36.13.52-.02l4.36-4.27c.14-.16.18-.3.13-.43s-.18-.21-.36-.22c-.89-.09-1.88-.44-2.95-1.03-1.73-.98-2.87-1.65-3.4-1.99s-1.21-.03-2.04.94c-1.05,1.23-1.05,2.41-.01,3.54s2.29,2.29,3.76,3.49ZM168.59,26.75c-.16.27-.11.47.14.61,1.11.52,2.22,1.02,3.33,1.52s2.23.98,3.35,1.45c.78.34,1.56-.1,2.34-1.34.97-1.55-.31-3.58-3.84-6.09-.55-.33-1.22-.17-2.02.47l-3.3,3.38Z"/>
      <path class="cls-1" d="M218.6,17.14c.33-.27.61-.28.84-.05s.15.56-.26.98c-.62.56-1.34.93-2.16,1.11s-1.63.28-2.46.29c-2.5.06-4.58-.68-6.23-2.24s-2.48-3.67-2.48-6.35,1.04-4.98,3.12-6.9,4.9-2.88,8.46-2.88c2.16.05,3.97.59,5.44,1.62s2.62,2.25,3.45,3.66c.11.22.27.27.49.14l10.15-5.27c.45-.2.78-.18.98.08s.15.51-.16.76c-1.11.8-1.25,1.9-.43,3.32s2.16,2.87,4.02,4.37c3.7,3.06,5.46,6.18,5.26,9.35s-1.35,6.21-3.46,9.12c-2.41,3.27-4.78,5.43-7.12,6.5s-5.13.71-8.37-1.09c-.12-.08-.25-.09-.36-.02s-.18.16-.2.28c-.23,1.97-.64,3.62-1.21,4.95s-1.44,2.55-2.61,3.66c-.22.2-.42.23-.61.09s-.2-.34-.05-.61c1.2-2.52,1.6-5.88,1.2-10.1,0-.14-.08-.24-.23-.3-3.12-1.22-5.46-1.08-7.01.42-.27.27-.52.31-.76.13s-.25-.42-.04-.71c2.44-3.17,4.81-4.85,7.12-5.04.12-.02.21-.05.27-.12s.08-.16.08-.3c-.19-2.02-.38-4.03-.57-6.04s-.39-4.02-.57-6.04c-.23-2.28-1.01-4.25-2.32-5.92s-2.95-2.51-4.9-2.54c-2.09-.11-3.86.4-5.3,1.54s-2.16,2.72-2.16,4.77.66,3.66,1.98,4.85,3.08,1.78,5.29,1.78c1.58.03,2.88-.38,3.89-1.24ZM227.11,8.1c.27.72.45,1.44.55,2.16s.17,1.4.2,2.04c.09,3.33.07,6.15-.06,8.46s-.22,4.43-.27,6.35c0,.19.07.3.21.35.77.34,1.6.78,2.51,1.31,3.17,1.83,5.69,2.55,7.56,2.18s3.36-1.45,4.49-3.23c2.47-3.91.93-8.1-4.62-12.59-1.89-1.5-3.48-2.95-4.77-4.34s-1.98-2.85-2.07-4.38c0-.19-.06-.3-.19-.35s-.25-.04-.38.02l-2.98,1.55c-.22.11-.28.27-.19.47Z"/>
      <path class="cls-1" d="M253.1,3.93c-.2-.3-.19-.53.05-.69s.47-.11.7.18c.69.86,1.24,1.78,1.66,2.77.05.16.16.23.33.23.14.03.27-.03.38-.19.91-1.62,2.33-2.88,4.28-3.76s3.92-1.24,5.92-1.07c.41.02.61.18.61.49s-.2.45-.59.42c-1.64-.11-3.07.27-4.29,1.12s-1.82,2.52-1.8,4.97l.05,5.25c0,.16.06.27.19.34s.25.07.38-.01c.86-.47,1.72-.98,2.59-1.55s1.67-1.2,2.4-1.9c.58-.58.91-.48.98.3.06.58.3,1.09.73,1.55s.81.9,1.17,1.34c2.11,2.69,3.2,5.59,3.26,8.72.11,4.59-1.51,8.65-4.85,12.18s-6.38,6.21-9.12,8.07c-.38.27-.65.31-.83.13s-.13-.39.15-.62c2.2-1.95,4.43-4.09,6.67-6.4s3.26-5.98,3.06-10.99c-.09-1.97-.39-3.82-.9-5.57s-1.43-3.19-2.78-4.35c-.69-.58-1.64-.57-2.86.02-.14.05-.21.16-.21.35l.09,14.16c0,1.27.51,1.79,1.52,1.57.22-.06.41-.18.59-.35s.36-.32.57-.46.4-.12.57.04.17.32,0,.49c-.77.84-1.54,1.62-2.32,2.34s-1.38,1.51-1.8,2.37c-.19.38-.47.38-.84,0-1.39-1.5-2.91-2.62-4.55-3.38-.53-.28-.57-.54-.12-.77,1-.34,1.49-1.38,1.48-3.09l-.05-15.66c-.02-2.11-.25-3.84-.71-5.18s-1.04-2.48-1.75-3.42Z"/>
      <path class="cls-1" d="M280.84,29.24l-.16-12.84c0-.3-.05-.54-.14-.73-.38-.61-.7-.76-.96-.45l-.94.96c-.25.28-.49.31-.71.09s-.19-.52.11-.91c.69-.86,1.3-1.72,1.85-2.58s1.11-1.71,1.69-2.55c.25-.3.54-.29.87.02.66.8,1.3,1.5,1.92,2.1s1.52,1.24,2.67,1.91c.33.12.47.27.43.45s-.14.27-.32.28c-.41.16-.77.43-1.08.81s-.47,1.02-.47,1.91v9.91c0,1.59.3,2.57.89,2.93.69.41,1.25.23,1.69-.52.16-.3.35-.36.57-.2s.22.43-.01.81c-.47.73-.91,1.47-1.31,2.21s-.82,1.48-1.24,2.21c-.3.44-.66.53-1.1.28-1.41-.67-2.46-1.49-3.18-2.46s-1.07-2.19-1.07-3.66ZM284.24,1.42c1.73,0,2.52.84,2.37,2.51-.09.84-.62,1.69-1.58,2.54s-1.72,1.27-2.29,1.25c-.56,0-.99-.45-1.29-1.34s-.41-1.71-.35-2.46c.05-.72.39-1.32,1.04-1.79s1.35-.71,2.1-.71Z"/>
      <path class="cls-1" d="M295.18,3.95c-.2-.22-.21-.43-.01-.63s.44-.16.74.12c.36.44.73.91,1.11,1.41s.71,1.02.97,1.55c.08.16.19.23.34.23s.26-.06.34-.19c.92-1.56,2.19-2.82,3.83-3.79,1.64-.96,3.41-1.41,5.31-1.35.36.02.55.17.56.46s-.17.43-.56.43c-1.55,0-2.79.45-3.71,1.34s-1.39,2.52-1.39,4.88l-.02,20.3c0,.5.12.82.35.96l1.69.96c.39.14.93-.23,1.62-1.12.17-.23.38-.29.63-.15s.24.34-.02.62c-1.64,1.83-2.9,3.62-3.77,5.39-.19.33-.47.33-.84,0-.76-.98-1.55-1.76-2.36-2.33s-1.95-1-3.41-1.3c-.25-.03-.38-.14-.39-.34s.07-.33.25-.41c.39-.14.75-.4,1.07-.79s.48-1.02.48-1.91l-.02-15.75c0-2.25-.24-4.02-.73-5.32s-1.16-2.38-2.04-3.26Z"/>
      <path class="cls-1" d="M320.05,35.17c-.23.39-.52.39-.87,0-1.72-2.14-4.33-3.75-7.83-4.83-.28-.08-.42-.2-.41-.38s.1-.3.27-.38c1-.34,1.5-1.38,1.5-3.12l-.07-11.95c0-.17-.02-.31-.05-.41s-.02-.2.04-.28.16-.14.32-.15c4.16-.34,7.85-1.48,11.09-3.4.14-.08.27-.1.39-.07s.18.14.2.33c.27,1.69,1.09,3.34,2.48,4.97.77.94,1.4,2.22,1.91,3.84s.71,2.98.6,4.05c-.16,1.27-.57,2.4-1.24,3.41s-1.44,1.93-2.3,2.78c-1.02,1-2.11,1.84-3.28,2.53s-2.09,1.7-2.74,3.05ZM317.49,14.21l.09,13.5c0,.23.09.4.28.49l4.15,2.58c.41.27.78.19,1.12-.23,1.48-1.59,2.16-3.51,2.02-5.74-.03-1.39-.3-2.63-.81-3.73s-1.14-2.06-1.89-2.91c-1.22-1.23-2.15-2.77-2.79-4.59-.03-.08-.1-.14-.21-.2s-.21-.06-.3-.01c-.47.17-.94.32-1.41.45-.17.06-.26.2-.26.4Z"/>
      <path class="cls-1" d="M343.79,5.71c2.19-.58,4.2-.45,6.02.4,1.23.59,2.2,1.41,2.88,2.46s.96,2.22.82,3.52-.57,2.26-1.28,2.88-1.29,1.11-1.75,1.45-.88.7-1.29,1.08c-.8.75-.86,1.42-.19,2.02,2.11,1.83,3.32,3.37,3.64,4.62s.1,2.35-.67,3.3c-1.06,1.31-2.19,2.56-3.39,3.74s-2.38,2.37-3.55,3.57c-.58.56-.93.53-1.05-.09-.2-.86-1.12-1.61-2.75-2.26s-3.36-1.27-5.17-1.86c-.33-.12-.35-.36-.07-.7.42-.44.86-.88,1.31-1.31s.91-.87,1.36-1.29c.7-.66.94-1.24.71-1.75s-.64-1.08-1.25-1.72c-1.53-1.59-2.27-3.09-2.21-4.48s.56-2.62,1.51-3.68c.89-.98,1.89-1.89,3.01-2.71s2.18-1.74,3.18-2.75c.12-.11.29-.07.49.12,2.09,1.86,3.84,2.8,5.24,2.81s2.31-.4,2.73-1.24c.42-.86.38-1.75-.12-2.68s-1.31-1.7-2.44-2.31c-1.7-.84-3.57-.92-5.6-.23-.41.16-.65.07-.73-.26s.12-.54.59-.63ZM343.27,21.88c.19.14.36.13.52-.02l4.36-4.27c.14-.16.18-.3.13-.43s-.18-.21-.36-.22c-.89-.09-1.88-.44-2.95-1.03-1.73-.98-2.87-1.65-3.4-1.99s-1.21-.03-2.04.94c-1.05,1.23-1.05,2.41-.01,3.54s2.29,2.29,3.76,3.49ZM340.04,26.75c-.16.27-.11.47.14.61,1.11.52,2.22,1.02,3.33,1.52s2.23.98,3.35,1.45c.78.34,1.56-.1,2.34-1.34.97-1.55-.31-3.58-3.84-6.09-.55-.33-1.22-.17-2.02.47l-3.3,3.38Z"/>
      <path class="cls-1" d="M367.72,35.17c-.23.39-.52.39-.87,0-1.72-2.14-4.33-3.75-7.83-4.83-.28-.08-.42-.2-.41-.38s.1-.3.27-.38c1-.34,1.5-1.38,1.5-3.12l-.07-11.95c0-.17-.02-.31-.05-.41s-.02-.2.04-.28.16-.14.32-.15c4.16-.34,7.85-1.48,11.09-3.4.14-.08.27-.1.39-.07s.18.14.2.33c.27,1.69,1.09,3.34,2.48,4.97.77.94,1.4,2.22,1.91,3.84s.71,2.98.6,4.05c-.16,1.27-.57,2.4-1.24,3.41s-1.44,1.93-2.3,2.78c-1.02,1-2.11,1.84-3.28,2.53s-2.09,1.7-2.74,3.05ZM365.16,14.21l.09,13.5c0,.23.09.4.28.49l4.15,2.58c.41.27.78.19,1.12-.23,1.48-1.59,2.16-3.51,2.02-5.74-.03-1.39-.3-2.63-.81-3.73s-1.14-2.06-1.89-2.91c-1.22-1.23-2.15-2.77-2.79-4.59-.03-.08-.1-.14-.21-.2s-.21-.06-.3-.01c-.47.17-.94.32-1.41.45-.17.06-.26.2-.26.4Z"/>
      <path class="cls-1" d="M386.42,7c-.69.72-.99,1.42-.92,2.1s.64,1.18,1.69,1.49c1.35.41,2.25.93,2.69,1.58.44.65.71,1.4.8,2.26.02.16.08.26.2.3s.24.05.36,0c1.98-1.16,4.02-2.54,6.12-4.15.12-.09.25-.11.38-.05s.2.16.23.28c.16.84.47,1.56.95,2.16s.97,1.18,1.49,1.76c1.92,2.17,2.77,4.6,2.55,7.29-.22,3.3-1.37,5.82-3.45,7.57-2.3,1.94-4.06,3.76-5.3,5.46-.16.2-.34.23-.54.09-.39-.23-.78-.46-1.17-.68s-.78-.45-1.17-.68c-.12-.06-.25-.07-.36-.01s-.18.16-.18.32c-.19,1.69-.43,3.34-.71,4.97s-.6,3.26-.93,4.9c-.06.22-.2.32-.4.32s-.33-.11-.38-.32c-.33-1.89-.64-3.91-.93-6.06s-.51-4.21-.67-6.2c-.03-.17-.12-.28-.26-.33-1.58-.58-2.7-.51-3.35.21-.14.14-.29.18-.43.13s-.22-.19-.22-.41c.02-2.55,1.23-3.9,3.63-4.05.23,0,.35-.12.35-.38v-.73c0-2.33-.04-4-.11-5.02s-.13-2.25-.18-3.7c-.03-.7-.21-1.24-.54-1.62s-.66-.7-.98-.98c-1.42-1.17-2.01-2.46-1.77-3.88s1.17-2.86,2.78-4.32c.28-.3.52-.36.73-.2s.2.36-.02.57ZM391.08,28.23c0,.19.07.3.21.35.8.41,1.57.84,2.33,1.29s1.53.9,2.31,1.34c.23.11.41.06.54-.14.47-.73.91-1.64,1.31-2.72s.62-2.42.66-4.03c.03-1.67-.29-3.17-.97-4.49s-1.42-2.58-2.21-3.79c-.83-1.16-2.26-1.24-4.29-.26-.16.08-.23.2-.23.35.02.19.02.47.02.84l.3,9.28c.02.45.02,1.11.02,1.97Z"/>
      <path class="cls-1" d="M409.17,3.93c-.2-.3-.19-.53.05-.69s.47-.11.7.18c.69.86,1.24,1.78,1.66,2.77.05.16.16.23.33.23.14.03.27-.03.38-.19.91-1.62,2.33-2.88,4.28-3.76s3.92-1.24,5.92-1.07c.41.02.61.18.61.49s-.2.45-.59.42c-1.64-.11-3.07.27-4.29,1.12s-1.82,2.52-1.8,4.97l.05,5.25c0,.16.06.27.19.34s.25.07.38-.01c.86-.47,1.72-.98,2.59-1.55s1.67-1.2,2.4-1.9c.58-.58.91-.48.98.3.06.58.3,1.09.73,1.55s.81.9,1.17,1.34c2.11,2.69,3.2,5.59,3.26,8.72.11,4.59-1.51,8.65-4.85,12.18s-6.38,6.21-9.12,8.07c-.38.27-.65.31-.83.13s-.13-.39.15-.62c2.2-1.95,4.43-4.09,6.67-6.4s3.26-5.98,3.06-10.99c-.09-1.97-.39-3.82-.9-5.57s-1.43-3.19-2.78-4.35c-.69-.58-1.64-.57-2.86.02-.14.05-.21.16-.21.35l.09,14.16c0,1.27.51,1.79,1.52,1.57.22-.06.41-.18.59-.35s.36-.32.57-.46.4-.12.57.04.17.32,0,.49c-.77.84-1.54,1.62-2.32,2.34s-1.38,1.51-1.8,2.37c-.19.38-.47.38-.84,0-1.39-1.5-2.91-2.62-4.55-3.38-.53-.28-.57-.54-.12-.77,1-.34,1.49-1.38,1.48-3.09l-.05-15.66c-.02-2.11-.25-3.84-.71-5.18s-1.04-2.48-1.75-3.42Z"/>
      <path class="cls-1" d="M436.92,29.24l-.16-12.84c0-.3-.05-.54-.14-.73-.38-.61-.7-.76-.96-.45l-.94.96c-.25.28-.49.31-.71.09s-.19-.52.11-.91c.69-.86,1.3-1.72,1.85-2.58s1.11-1.71,1.69-2.55c.25-.3.54-.29.87.02.66.8,1.3,1.5,1.92,2.1s1.52,1.24,2.67,1.91c.33.12.47.27.43.45s-.14.27-.32.28c-.41.16-.77.43-1.08.81s-.47,1.02-.47,1.91v9.91c0,1.59.3,2.57.89,2.93.69.41,1.25.23,1.69-.52.16-.3.35-.36.57-.2s.22.43-.01.81c-.47.73-.91,1.47-1.31,2.21s-.82,1.48-1.24,2.21c-.3.44-.66.53-1.1.28-1.41-.67-2.46-1.49-3.18-2.46s-1.07-2.19-1.07-3.66ZM440.32,1.42c1.73,0,2.52.84,2.37,2.51-.09.84-.62,1.69-1.58,2.54s-1.72,1.27-2.29,1.25c-.56,0-.99-.45-1.29-1.34s-.41-1.71-.35-2.46c.05-.72.39-1.32,1.04-1.79s1.35-.71,2.1-.71Z"/>
      <path class="cls-1" d="M458.01,35.43c-.03-.38-.23-.66-.6-.84s-.68-.38-.93-.56c-1.8-1.22-3.07-2.71-3.81-4.46s-1.16-3.62-1.25-5.59c-.19-4.45,1.02-7.84,3.61-10.17.92-.83,1.98-1.5,3.19-2.03s2.44-.95,3.7-1.28c.34-.06.63.13.87.59l2.74,5.53c.22.45.16.71-.16.77-1.16.17-2.21.58-3.16,1.22-.44.28-.8.14-1.08-.42l-2.44-5.06c-.16-.33-.44-.38-.84-.14-1.03.61-1.69,2.06-1.97,4.36s-.22,4.41.19,6.33c.73,3.61,2.01,5.92,3.82,6.94s3.62,1.17,5.44.47c.23-.11.41-.09.54.05.12.2.09.35-.12.45-1.27.64-2.47,1.3-3.62,1.97s-2.18,1.38-3.08,2.11c-.14.09-.35.12-.62.09s-.41-.13-.41-.3Z"/>
      <path class="cls-1" d="M483.46,31.44c-.8.61-1.67,1.28-2.62,2s-1.84,1.39-2.65,2c-.28.22-.5.31-.67.28s-.23-.17-.2-.42c0-.33-.48-.95-1.45-1.88-2.55-2.39-3.77-5.5-3.68-9.33.09-3.28,1.62-6.05,4.57-8.32.91-.69,1.75-1.41,2.54-2.18s1.49-1.7,2.1-2.79c.25-.48.59-.5,1.03-.05,2.37,2.69,4.74,4.27,7.1,4.76.75.14.83.44.23.89-.73.53-1.13,1.19-1.2,1.97v.05l.07,10.71c0,.72.26,1.21.79,1.48s1.09.06,1.7-.61c.23-.27.46-.33.67-.2s.21.37.01.71c-.56.84-1.11,1.67-1.63,2.48s-.96,1.66-1.32,2.53l-.02.02c-.22.36-.48.36-.79,0-.17-.19-.37-.31-.61-.38-1.77-.39-2.89-1.57-3.36-3.54-.03-.09-.11-.19-.23-.28-.14-.02-.27,0-.38.07ZM483.72,17.64c-.97-.27-2.1-1.02-3.4-2.25-.62-.75-1.12-.82-1.5-.21-1.66,2.47-2.3,5.2-1.95,8.18.5,4.27,2,6.9,4.5,7.9.02,0,.03,0,.05.02.64.2,1.41-.18,2.32-1.15.06-.09.09-.18.09-.26-.02-.23-.02-.6-.02-1.1l.21-10.76c0-.19-.1-.31-.3-.38Z"/>
      <path class="cls-1" d="M498.15,3.95c-.2-.22-.21-.43-.01-.63s.44-.16.74.12c.36.44.73.91,1.11,1.41s.71,1.02.97,1.55c.08.16.19.23.34.23s.26-.06.34-.19c.92-1.56,2.19-2.82,3.83-3.79,1.64-.96,3.41-1.41,5.31-1.35.36.02.55.17.56.46s-.17.43-.56.43c-1.55,0-2.79.45-3.71,1.34s-1.39,2.52-1.39,4.88l-.02,20.3c0,.5.12.82.35.96l1.69.96c.39.14.93-.23,1.62-1.12.17-.23.38-.29.63-.15s.24.34-.02.62c-1.64,1.83-2.9,3.62-3.77,5.39-.19.33-.47.33-.84,0-.76-.98-1.55-1.76-2.36-2.33s-1.95-1-3.41-1.3c-.25-.03-.38-.14-.39-.34s.07-.33.25-.41c.39-.14.75-.4,1.07-.79s.48-1.02.48-1.91l-.02-15.75c0-2.25-.24-4.02-.73-5.32s-1.16-2.38-2.04-3.26Z"/>
      <path class="cls-1" d="M14.98,126.52c-.86.57-1.53.55-1.99-.05-.47-.6-.32-1.23.45-1.89,5.71-5.28,10.82-8.65,15.34-10.11,4.52-1.46,10.46.15,17.83,4.83,6.54,4.18,12.33,5.99,17.38,5.4,5.05-.58,8.73-3.58,11.06-8.99,3.98-9.4,2.81-18.71-3.51-27.94-6.33-9.23-14.75-15.09-25.28-17.58-7.31-1.73-14.61-1.1-21.91,1.89-7.31,2.99-11.6,7.44-12.9,13.35-1.59,7.11-.07,12.27,4.56,15.49,4.63,3.22,9.4,4.22,14.32,2.99.63-.17,1.26-.4,1.89-.7.9-.4,1.54-.26,1.92.4.38.67.11,1.25-.82,1.74-1.26.53-2.08.85-2.44.95-4.72,1.49-9.93.68-15.64-2.44-5.71-3.12-8.57-9.21-8.57-18.28,0-5.01,1.58-9.57,4.73-13.67,3.15-4.1,7.19-7.39,12.1-9.86,4.91-2.47,10.32-3.9,16.21-4.28,5.89-.38,11.68.31,17.36,2.07,6.14,2.33,11.3,5.68,15.46,10.06,4.17,4.38,7.2,9.25,9.09,14.59,1.89,5.35,2.56,10.88,2.02,16.58-.55,5.71-2.45,11.02-5.7,15.94-4.98,7.47-11.04,12.44-18.18,14.92-7.14,2.47-16.22.75-27.24-5.16-2.79-1.49-5.64-2.54-8.54-3.14-2.91-.6-5.9.37-8.99,2.89ZM43.57,114.86c-.93.47-1.58.39-1.94-.22-.37-.61-.18-1.19.55-1.72,3.82-2.59,4.51-5.28,2.07-8.07s-4.69-5.08-6.75-6.87c-6.81-5.81-9.03-10.86-6.67-15.14,2.36-4.28,6.14-7.87,11.36-10.76.93-.46,1.58-.37,1.97.27.38.65.16,1.24-.67,1.77-4.95,3.09-3.95,7.54,2.99,13.35,6.28,5.25,9.05,10.19,8.32,14.84-.73,4.65-4.47,8.83-11.21,12.55Z"/>
      <path class="cls-1" d="M103.48,120.04l-.35-27.29c0-.63-.1-1.15-.3-1.54-.8-1.29-1.48-1.61-2.04-.95l-1.99,2.04c-.53.6-1.04.67-1.52.2-.48-.46-.41-1.11.22-1.94,1.46-1.83,2.77-3.65,3.93-5.48,1.16-1.83,2.36-3.64,3.59-5.43.53-.63,1.15-.61,1.84.05,1.39,1.69,2.76,3.18,4.08,4.46,1.33,1.28,3.22,2.63,5.68,4.06.7.27,1,.58.92.95-.08.37-.31.57-.67.6-.86.33-1.63.91-2.29,1.72-.66.81-1,2.17-1,4.06v21.07c0,3.39.63,5.46,1.89,6.23,1.46.86,2.66.5,3.59-1.1.33-.63.74-.77,1.22-.42.48.35.47.92-.02,1.72-1,1.56-1.93,3.13-2.79,4.71-.86,1.58-1.74,3.15-2.64,4.71-.63.93-1.41,1.13-2.34.6-2.99-1.43-5.24-3.17-6.75-5.23-1.51-2.06-2.27-4.65-2.27-7.77ZM110.7,60.92c3.69,0,5.36,1.78,5.03,5.33-.2,1.79-1.32,3.59-3.36,5.4s-3.66,2.7-4.86,2.66c-1.2,0-2.11-.95-2.74-2.84-.63-1.89-.88-3.64-.75-5.23.1-1.53.84-2.8,2.22-3.81,1.38-1.01,2.86-1.52,4.46-1.52Z"/>
      <path class="cls-1" d="M148.29,133.19c-.07-.8-.49-1.39-1.27-1.79-.78-.4-1.44-.8-1.97-1.2-3.82-2.59-6.52-5.75-8.09-9.49-1.58-3.74-2.47-7.7-2.66-11.88-.4-9.46,2.16-16.67,7.67-21.62,1.96-1.76,4.22-3.2,6.77-4.31,2.56-1.11,5.18-2.02,7.87-2.71.73-.13,1.34.28,1.84,1.25l5.83,11.75c.46.96.35,1.51-.35,1.64-2.46.37-4.7,1.23-6.72,2.59-.93.6-1.69.3-2.29-.9l-5.18-10.76c-.33-.7-.93-.8-1.79-.3-2.19,1.29-3.59,4.38-4.18,9.26s-.47,9.36.4,13.45c1.56,7.67,4.27,12.58,8.12,14.74,3.85,2.16,7.7,2.49,11.55,1,.5-.23.88-.2,1.15.1.27.43.18.75-.25.95-2.69,1.36-5.25,2.76-7.69,4.18-2.44,1.43-4.62,2.92-6.55,4.48-.3.2-.74.27-1.32.2-.58-.07-.87-.28-.87-.65Z"/>
      <path class="cls-1" d="M194.86,91.15l-.05,27.89c0,1.03.25,1.71.75,2.04l3.59,2.04c.7.6,1.86-.2,3.49-2.39.3-.43.71-.5,1.22-.2.51.3.54.7.07,1.2-3.55,3.88-6.23,7.7-8.02,11.46-.56.7-1.18.7-1.84,0-1.86-2.19-3.59-3.83-5.18-4.93s-3.97-2.02-7.12-2.79c-.53-.1-.81-.35-.85-.75-.03-.4.17-.68.6-.85,2.22-.53,3.32-2.44,3.29-5.73l-.05-26.94c.03-.6-.22-.9-.75-.9h-5.88c-.47,0-.76-.18-.9-.55-.13-.36.02-.68.45-.95,3.98-2.82,8.04-6.23,12.18-10.21s7.89-7.77,11.28-11.36c.43-.46.85-.56,1.27-.27.41.28.42.69.02,1.22-1.53,1.89-3.06,4.35-4.61,7.37-1.54,3.02-2.48,5.78-2.81,8.27-.07.33-.05.58.05.75.2.2.43.3.7.3h8.62c.23,0,.43.08.6.25.17.23.25.45.25.65l-.2,3.74c-.07.53-.35.8-.85.8h-8.62c-.47,0-.7.28-.7.85Z"/>
      <path class="cls-1" d="M223.79,120.04l-.35-27.29c0-.63-.1-1.15-.3-1.54-.8-1.29-1.48-1.61-2.04-.95l-1.99,2.04c-.53.6-1.04.67-1.52.2-.48-.46-.41-1.11.22-1.94,1.46-1.83,2.77-3.65,3.93-5.48,1.16-1.83,2.36-3.64,3.59-5.43.53-.63,1.15-.61,1.84.05,1.39,1.69,2.76,3.18,4.08,4.46,1.33,1.28,3.22,2.63,5.68,4.06.7.27,1,.58.92.95-.08.37-.31.57-.67.6-.86.33-1.63.91-2.29,1.72-.66.81-1,2.17-1,4.06v21.07c0,3.39.63,5.46,1.89,6.23,1.46.86,2.66.5,3.59-1.1.33-.63.74-.77,1.22-.42.48.35.47.92-.02,1.72-1,1.56-1.93,3.13-2.79,4.71-.86,1.58-1.74,3.15-2.64,4.71-.63.93-1.41,1.13-2.34.6-2.99-1.43-5.24-3.17-6.75-5.23-1.51-2.06-2.27-4.65-2.27-7.77ZM231.01,60.92c3.69,0,5.36,1.78,5.03,5.33-.2,1.79-1.32,3.59-3.36,5.4s-3.66,2.7-4.86,2.66c-1.2,0-2.11-.95-2.74-2.84-.63-1.89-.88-3.64-.75-5.23.1-1.53.84-2.8,2.22-3.81,1.38-1.01,2.86-1.52,4.46-1.52Z"/>
      <path class="cls-1" d="M271,132.64c-.5.83-1.11.83-1.84,0-3.65-4.55-9.2-7.97-16.63-10.26-.6-.17-.89-.43-.87-.8.02-.36.21-.63.57-.8,2.12-.73,3.19-2.94,3.19-6.62l-.15-25.4c0-.36-.03-.66-.1-.87-.07-.22-.04-.42.07-.6.12-.18.34-.29.67-.32,8.83-.73,16.68-3.14,23.56-7.22.3-.17.57-.21.82-.15.25.07.39.3.42.7.56,3.59,2.32,7.11,5.28,10.56,1.63,1.99,2.98,4.72,4.06,8.17,1.08,3.45,1.5,6.33,1.27,8.62-.33,2.69-1.21,5.11-2.64,7.25s-3.05,4.11-4.88,5.9c-2.16,2.13-4.48,3.92-6.97,5.38-2.49,1.46-4.43,3.62-5.83,6.47ZM265.57,88.12l.2,28.69c0,.5.2.85.6,1.05l8.82,5.48c.86.57,1.66.4,2.39-.5,3.15-3.39,4.58-7.45,4.28-12.2-.07-2.95-.64-5.59-1.72-7.92-1.08-2.32-2.42-4.38-4.01-6.18-2.59-2.62-4.57-5.88-5.93-9.76-.07-.17-.22-.31-.45-.42s-.45-.12-.65-.03c-1,.37-1.99.68-2.99.95-.37.13-.55.42-.55.85Z"/>
      <path class="cls-1" d="M321.99,113.77c-.03,5.35.96,8.43,2.99,9.26.23.17.35.39.35.67s-.12.49-.35.62c-2.99,2.26-5.41,5.26-7.27,9.01-.2.27-.45.4-.75.4s-.55-.13-.75-.4c-1.86-3.75-4.38-6.74-7.57-8.96-.2-.13-.3-.35-.3-.65s.12-.53.35-.7c2.16-.83,3.24-3.92,3.24-9.26v-16.54c0-3.39-.63-5.46-1.89-6.23-1.46-.96-2.66-.61-3.59,1.05-.37.7-.78.86-1.25.5-.46-.36-.45-.95.05-1.74.96-1.53,1.88-3.09,2.76-4.68.88-1.59,1.78-3.19,2.71-4.78.53-.96,1.28-1.16,2.24-.6l.05.05c4.88,2.46,7.8,5.46,8.77,9.01.07.37.23.58.5.65.26.07.53,0,.79-.2,1.82-1.53,3.69-3.14,5.62-4.83,1.92-1.69,3.23-3.25,3.93-4.68.36-.86.96-.85,1.79.05,1.99,2.09,3.68,3.75,5.09,4.98,1.41,1.23,3.8,2.14,7.19,2.74.6.13.9.39.92.77.02.38-.19.64-.62.77-.86.33-1.63.91-2.29,1.72s-1,2.17-1,4.06v21.07c0,3.39.63,5.46,1.89,6.23,1.46.9,2.64.53,3.54-1.1.37-.63.79-.77,1.27-.42.48.35.47.92-.03,1.72-1,1.56-1.93,3.13-2.81,4.71-.88,1.58-1.77,3.15-2.67,4.71-.6.93-1.34,1.15-2.24.65-6.01-2.92-9.02-7.25-9.02-13l.05-25.5c0-1-.25-1.64-.75-1.94h-.05v-.1l-4.23-3.49c-.37-.26-.75-.28-1.15-.05l-5.18,4.03c-.23.17-.35.37-.35.6v19.82Z"/>
      <path class="cls-1" d="M388.37,124.72c-1.69,1.29-3.55,2.71-5.58,4.26-2.03,1.54-3.9,2.96-5.63,4.26-.6.46-1.07.66-1.42.6s-.49-.37-.42-.9c0-.7-1.03-2.02-3.09-3.98-5.41-5.08-8.02-11.69-7.82-19.82.2-6.97,3.44-12.87,9.71-17.68,1.92-1.46,3.73-3,5.4-4.63,1.68-1.63,3.16-3.6,4.46-5.93.53-1.03,1.26-1.06,2.19-.1,5.03,5.71,10.06,9.08,15.09,10.11,1.59.3,1.76.93.5,1.89-1.56,1.13-2.41,2.52-2.54,4.18v.1l.15,22.76c0,1.53.56,2.57,1.67,3.14,1.11.57,2.32.13,3.61-1.29.5-.56.97-.71,1.42-.42s.46.79.03,1.52c-1.2,1.79-2.35,3.55-3.46,5.28-1.11,1.73-2.05,3.52-2.81,5.38l-.05.05c-.46.76-1.03.76-1.69,0-.36-.4-.79-.66-1.29-.8-3.77-.83-6.15-3.34-7.14-7.52-.07-.2-.23-.4-.5-.6-.3-.03-.57.02-.8.15ZM388.92,95.39c-2.06-.56-4.47-2.16-7.22-4.78-1.33-1.59-2.39-1.74-3.19-.45-3.52,5.25-4.9,11.04-4.13,17.38,1.06,9.06,4.25,14.66,9.56,16.78.03,0,.07.02.1.05,1.36.43,3-.38,4.93-2.44.13-.2.2-.38.2-.55-.03-.5-.05-1.28-.05-2.34l.45-22.86c0-.4-.22-.66-.65-.8Z"/>
      <path class="cls-1" d="M436.58,94.39l-.05,24.16c0,1.06.27,1.74.8,2.04l3.59,2.09c.76.47,1.92-.35,3.49-2.44.33-.43.75-.52,1.25-.27s.5.67,0,1.27c-3.49,3.88-6.16,7.7-8.02,11.46-.57.76-1.18.76-1.85,0-1.87-2.16-3.61-3.8-5.23-4.93-1.62-1.13-3.99-2.06-7.12-2.79-.6-.17-.9-.43-.9-.8s.22-.63.65-.8c2.22-.36,3.32-2.27,3.29-5.73v-21.07c0-3.39-.63-5.46-1.89-6.23-1.46-.96-2.66-.61-3.59,1.05-.37.7-.78.86-1.25.5-.46-.36-.45-.95.05-1.74.96-1.53,1.88-3.09,2.76-4.68.88-1.59,1.78-3.19,2.71-4.78.56-1,1.31-1.18,2.25-.55,4.9,2.36,7.84,5.35,8.81,8.96.1.33.3.54.6.62s.56-.03.8-.32l7.67-8.82c.2-.2.43-.29.7-.27.27.02.48.16.65.42l5.23,10.01c.13.3.1.58-.1.85l-5.98,7.17c-.23.23-.49.33-.77.3-.28-.03-.47-.18-.57-.45l-4.03-7.47c-.13-.2-.34-.32-.62-.37s-.54.04-.77.27l-2.34,2.84c-.13.13-.2.3-.2.5Z"/>
      <path class="cls-1" d="M482.99,88.02c1.99-1.1,4.01-2.28,6.05-3.56,2.04-1.28,3.93-2.75,5.65-4.41,1.16-1.23,1.86-1.01,2.09.65.1,1.23.61,2.33,1.54,3.29.93.96,1.78,1.91,2.54,2.84,4.45,5.65,6.76,11.82,6.92,18.53.2,9.76-3.25,18.39-10.33,25.87-7.09,7.49-13.56,13.21-19.4,17.16-.8.53-1.37.6-1.72.2-.35-.4-.26-.81.27-1.25,4.68-4.15,9.41-8.68,14.19-13.6,4.78-4.91,6.94-12.7,6.47-23.36-.2-4.18-.85-8.13-1.94-11.83s-3.06-6.78-5.88-9.24c-1.59-1.29-3.9-1.08-6.92.65-.23.17-.35.42-.35.75.03,6.41.07,11.81.12,16.21.05,4.4.09,8.82.12,13.27.1,3.06,1.2,4.17,3.29,3.34l2.24-1.74c.56-.43,1.06-.46,1.49-.1.43.37.4.78-.1,1.25-1.69,1.69-3.33,3.35-4.91,4.96s-2.85,3.3-3.81,5.05c-.37.76-.98.76-1.84,0-1.59-1.83-2.8-3.1-3.61-3.83-.81-.73-2.81-1.84-6-3.34-.67-.23-.99-.53-.97-.9.02-.36.24-.61.67-.75,2.12-.73,3.17-2.92,3.14-6.57,0-3.79.04-7.61.12-11.48.08-3.87.07-7.65-.03-11.33-.07-1.53-.46-2.69-1.17-3.49-.71-.8-1.4-1.49-2.07-2.09-2.99-2.49-4.18-5.25-3.56-8.27.61-3.02,2.62-6.09,6-9.21.6-.66,1.12-.81,1.57-.45.45.37.46.78.03,1.25-1.49,1.53-2.16,3.01-1.99,4.46.17,1.44,1.36,2.5,3.59,3.16,2.59.8,4.38,1.81,5.38,3.04,1,1.23,1.63,2.64,1.89,4.23.03.27.17.47.42.62.25.15.5.16.77.02Z"/>
    </g>
  </g>
</svg>