<svg width="98" height="46" fill="none" xmlns="http://www.w3.org/2000/svg"><path d="M91.734 31.523c.453-.25.91-.518 1.37-.805.47-.294.9-.63 1.293-1.008.264-.28.423-.23.475.147.023.28.14.529.352.748.211.219.404.434.578.646 1.012 1.284 1.537 2.689 1.575 4.215.045 2.22-.74 4.185-2.357 5.892-1.61 1.7-3.078 2.999-4.408 3.898-.181.12-.313.136-.397.045-.075-.09-.053-.185.068-.283a60.735 60.735 0 0 0 3.23-3.093c1.087-1.118 1.578-2.89 1.473-5.315a11.279 11.279 0 0 0-.442-2.685 4.368 4.368 0 0 0-1.337-2.108c-.363-.294-.888-.245-1.575.148-.053.037-.08.094-.08.17.008 1.458.016 2.689.023 3.694.015.997.027 2.001.034 3.014.023.694.272.948.748.759l.51-.397c.128-.098.242-.106.34-.023.098.084.09.178-.023.284-.385.385-.76.763-1.122 1.133a5.225 5.225 0 0 0-.86 1.144c-.084.174-.224.174-.42 0-.363-.415-.638-.706-.827-.872-.181-.166-.635-.42-1.36-.76-.151-.052-.227-.12-.227-.203.008-.083.06-.14.16-.17.482-.166.72-.665.713-1.496 0-.861.008-1.73.023-2.606.022-.884.022-1.745 0-2.584-.015-.347-.106-.611-.272-.793a5.605 5.605 0 0 0-.465-.476c-.68-.566-.952-1.193-.816-1.88.144-.688.6-1.387 1.371-2.097.136-.15.253-.185.352-.102.105.083.11.178.01.283-.339.348-.49.688-.452 1.02.037.325.31.563.816.714.589.181.997.412 1.223.691.227.28.37.6.43.963.008.06.039.11.091.148.06.03.121.03.182 0Zm-8.704 1.45-.01 5.496c0 .241.06.396.18.464l.817.476c.173.106.438-.08.793-.555.075-.098.17-.117.283-.057.113.053.113.148 0 .284-.793.883-1.401 1.752-1.824 2.606-.129.173-.268.173-.42 0-.422-.491-.819-.865-1.19-1.122-.362-.257-.898-.468-1.608-.635-.136-.037-.204-.098-.204-.181 0-.083.049-.144.147-.181.506-.083.756-.518.748-1.303v-4.793c0-.77-.144-1.243-.43-1.417-.333-.219-.605-.14-.816.238-.084.159-.178.197-.284.114-.105-.083-.102-.216.012-.397.219-.347.426-.703.623-1.065.204-.363.412-.725.623-1.088.129-.227.299-.268.51-.125 1.11.537 1.775 1.217 1.994 2.04a.207.207 0 0 0 .136.147c.068.015.129-.011.181-.079l1.746-2.006a.183.183 0 0 1 .158-.056c.06 0 .11.03.147.09l1.19 2.278a.18.18 0 0 1-.022.193l-1.36 1.631a.213.213 0 0 1-.181.068.145.145 0 0 1-.125-.102l-.918-1.7c-.03-.045-.08-.071-.147-.079-.06-.015-.117.004-.17.057l-.533.646a.154.154 0 0 0-.045.113Zm-9.086 6.901c-.385.294-.808.62-1.27.974-.46.348-.887.669-1.28.963-.136.106-.245.151-.328.136-.076-.015-.106-.083-.09-.204 0-.158-.235-.46-.703-.906-1.232-1.156-1.825-2.66-1.78-4.51.046-1.586.782-2.927 2.21-4.022a12.8 12.8 0 0 0 1.224-1.054c.385-.37.725-.82 1.02-1.349.12-.234.287-.241.498-.022 1.149 1.299 2.297 2.066 3.445 2.3.362.068.4.211.113.43-.355.257-.547.575-.578.952v.023l.034 5.178c0 .348.125.586.374.714.257.129.533.03.827-.294.114-.129.22-.16.318-.091.105.06.11.174.011.34-.272.408-.536.808-.793 1.2-.25.394-.46.802-.635 1.225l-.011.011c-.106.174-.234.174-.385 0a.605.605 0 0 0-.295-.181c-.861-.19-1.405-.76-1.632-1.711a.301.301 0 0 0-.113-.136.291.291 0 0 0-.181.034Zm.124-6.674c-.468-.129-1.016-.491-1.642-1.088-.303-.363-.544-.397-.726-.102-.8 1.194-1.114 2.512-.94 3.955.242 2.062.967 3.335 2.175 3.818.008 0 .016.004.023.011.31.099.684-.086 1.122-.555a.23.23 0 0 0 .045-.124 8.95 8.95 0 0 1-.011-.533l.102-5.201c0-.09-.05-.151-.147-.181ZM60.72 37.38c-.008 1.217.219 1.92.68 2.108a.185.185 0 0 1 .079.16c0 .06-.026.105-.08.135-.68.514-1.23 1.197-1.654 2.051a.205.205 0 0 1-.17.09.205.205 0 0 1-.17-.09c-.423-.854-.997-1.534-1.722-2.04-.045-.03-.068-.079-.068-.147 0-.068.027-.12.08-.159.49-.188.736-.89.736-2.107v-3.762c0-.77-.143-1.243-.43-1.416-.333-.22-.605-.14-.816.237-.084.16-.178.197-.284.114-.106-.083-.102-.215.012-.397.219-.347.426-.702.623-1.065.204-.362.411-.725.623-1.088.12-.219.29-.264.51-.136l.011.012c1.11.559 1.776 1.242 1.995 2.05.015.084.052.133.113.148.06.015.12 0 .181-.045.416-.348.842-.714 1.28-1.1.439-.385.737-.74.896-1.065.083-.196.219-.192.408.012.453.476.838.853 1.155 1.133.325.28.873.487 1.643.623.136.03.204.09.204.181.008.083-.037.14-.136.17-.196.076-.37.208-.52.397-.152.181-.228.487-.228.918v4.793c0 .77.144 1.242.431 1.416.332.204.6.121.805-.25.083-.143.177-.173.283-.09.113.076.113.204 0 .385-.227.355-.442.714-.646 1.077-.196.355-.397.71-.6 1.065-.136.212-.306.26-.51.147-1.375-.664-2.063-1.65-2.063-2.957l.012-5.802c0-.226-.057-.373-.17-.441H63.2v-.023l-.963-.793a.221.221 0 0 0-.26-.012l-1.179.918c-.053.038-.08.083-.08.136v4.51Zm-9.733 4.295c-.113.19-.253.19-.42 0-.83-1.035-2.092-1.813-3.784-2.334-.136-.038-.2-.098-.193-.181 0-.083.042-.144.125-.181.483-.167.725-.669.725-1.508l-.034-5.778a.637.637 0 0 0-.022-.193.167.167 0 0 1 .01-.136c.031-.045.084-.072.16-.08 2.009-.165 3.795-.713 5.36-1.642.067-.038.128-.05.18-.034.06.015.095.068.102.158.129.816.53 1.617 1.202 2.403.37.453.676 1.072.917 1.858.25.785.348 1.439.295 1.96a3.798 3.798 0 0 1-.6 1.654c-.325.484-.696.93-1.111 1.337a8.1 8.1 0 0 1-1.586 1.224c-.567.333-1.009.824-1.326 1.473Zm-1.235-10.13.045 6.527c0 .113.045.193.136.238l2.006 1.246c.196.129.377.091.544-.113.717-.77 1.042-1.696.974-2.776-.015-.672-.147-1.273-.397-1.802a5.61 5.61 0 0 0-.906-1.405c-.59-.596-1.039-1.337-1.348-2.22-.015-.038-.05-.068-.102-.091-.053-.03-.102-.034-.148-.012a7.862 7.862 0 0 1-.68.216c-.083.03-.124.094-.124.192Zm-7.638 7.264-.079-6.21a.785.785 0 0 0-.068-.351c-.181-.295-.336-.366-.464-.215l-.454.464c-.12.136-.237.151-.35.045-.107-.105-.088-.253.056-.441.332-.416.63-.831.895-1.247.264-.415.536-.827.816-1.235.12-.143.26-.14.419.011.317.386.627.726.93 1.02.301.287.732.593 1.29.918.16.06.228.132.205.215-.015.083-.064.129-.147.136-.197.076-.37.208-.522.397-.15.181-.226.487-.226.918v4.793c0 .77.143 1.242.43 1.416.333.197.605.113.816-.25.076-.143.166-.173.272-.09.113.076.113.204 0 .385-.227.355-.438.714-.634 1.077-.197.355-.397.71-.601 1.065-.144.212-.321.257-.533.136-.68-.325-1.193-.721-1.54-1.19-.34-.468-.51-1.057-.51-1.767Zm1.644-13.45c.838 0 1.22.404 1.144 1.212-.045.408-.302.82-.77 1.235-.461.408-.828.608-1.1.6-.272 0-.48-.215-.623-.645-.143-.43-.2-.827-.17-1.19.023-.347.189-.635.499-.861a1.685 1.685 0 0 1 1.02-.351Zm-6.357 6.878-.011 6.345c0 .234.057.389.17.465l.816.464c.158.136.423-.045.793-.544.068-.098.159-.113.272-.045.12.068.128.159.023.272-.809.884-1.417 1.752-1.825 2.606-.128.159-.268.159-.42 0-.422-.499-.815-.872-1.178-1.122-.362-.25-.902-.46-1.62-.634-.12-.023-.185-.08-.192-.17-.008-.091.037-.155.136-.193.506-.12.755-.555.747-1.303l-.011-6.13c.008-.136-.05-.204-.17-.204h-1.337c-.106 0-.174-.042-.204-.125-.03-.083.004-.154.102-.215a23.756 23.756 0 0 0 2.765-2.323 74.863 74.863 0 0 0 2.572-2.583c.098-.106.193-.125.283-.057.098.06.102.151.012.272-.348.43-.7.99-1.054 1.677-.348.687-.56 1.314-.635 1.88-.015.076-.011.133.012.17a.217.217 0 0 0 .158.069h1.96c.053 0 .099.019.136.056a.259.259 0 0 1 .057.148l-.045.85c-.015.12-.08.181-.193.181h-1.96c-.106 0-.159.064-.159.193ZM28.688 41.8c-.015-.181-.113-.317-.295-.408a3.225 3.225 0 0 1-.442-.272c-.868-.59-1.484-1.307-1.847-2.153a7.986 7.986 0 0 1-.6-2.708c-.09-2.153.49-3.792 1.745-4.918.446-.4.96-.725 1.54-.974a11.676 11.676 0 0 1 1.791-.623c.166-.03.306.064.42.283l1.325 2.674c.106.22.08.344-.08.374a3.676 3.676 0 0 0-1.529.59c-.211.135-.385.067-.521-.205l-1.179-2.447c-.075-.159-.211-.182-.407-.068-.5.294-.816.997-.952 2.107-.136 1.11-.106 2.13.09 3.06.355 1.745.971 2.863 1.847 3.354.877.49 1.753.566 2.63.226.112-.053.2-.045.26.023.06.098.041.17-.057.215a34.61 34.61 0 0 0-1.756.952 12.2 12.2 0 0 0-1.485 1.02c-.068.045-.17.06-.306.045-.128-.015-.192-.064-.192-.147Zm-8.328-2.991-.08-6.21a.787.787 0 0 0-.068-.351c-.181-.295-.336-.366-.465-.215l-.453.464c-.12.136-.238.151-.351.045-.106-.105-.087-.253.056-.441.333-.416.631-.831.896-1.247.264-.415.536-.827.815-1.235.121-.143.261-.14.42.011.317.386.627.726.929 1.02.302.287.733.593 1.292.918.158.06.226.132.204.215-.016.083-.065.129-.148.136-.196.076-.37.208-.521.397-.151.181-.227.487-.227.918v4.793c0 .77.144 1.242.43 1.416.333.197.605.113.817-.25.075-.143.166-.173.272-.09.113.076.113.204 0 .385-.227.355-.438.714-.635 1.077-.196.355-.396.71-.6 1.065-.144.212-.321.257-.533.136-.68-.325-1.194-.721-1.54-1.19-.34-.468-.51-1.057-.51-1.767Zm1.642-13.45c.839 0 1.22.404 1.145 1.212-.046.408-.303.82-.77 1.235-.462.408-.828.608-1.1.6-.272 0-.48-.215-.623-.645-.144-.43-.2-.827-.17-1.19.022-.347.189-.635.498-.861a1.685 1.685 0 0 1 1.02-.351ZM2.105 40.282c-.196.128-.347.124-.453-.012-.106-.136-.072-.28.102-.43 1.3-1.201 2.463-1.968 3.49-2.3 1.027-.333 2.38.034 4.056 1.099 1.489.951 2.807 1.363 3.955 1.235 1.148-.136 1.987-.82 2.515-2.051.907-2.138.639-4.257-.804-6.357-1.435-2.1-3.35-3.433-5.745-4-1.662-.393-3.324-.25-4.986.43-1.661.68-2.64 1.693-2.934 3.037-.363 1.617-.02 2.792 1.03 3.525 1.058.732 2.146.959 3.264.68.144-.038.287-.091.43-.16.205-.09.348-.06.431.091.09.151.03.284-.181.397-.287.12-.472.193-.555.215-1.073.34-2.259.155-3.558-.555-1.3-.71-1.95-2.096-1.95-4.158 0-1.141.36-2.176 1.077-3.105.718-.937 1.636-1.685 2.754-2.244 1.118-.566 2.345-.891 3.682-.974 1.345-.09 2.663.064 3.955.464 1.397.53 2.568 1.292 3.513 2.29.951.996 1.643 2.103 2.073 3.32a8.628 8.628 0 0 1 .453 3.773 7.784 7.784 0 0 1-1.291 3.625c-1.134 1.7-2.512 2.83-4.136 3.388-1.624.567-3.69.178-6.198-1.167a7.147 7.147 0 0 0-1.95-.714c-.656-.136-1.336.084-2.039.658ZM8.61 37.63c-.211.106-.359.09-.442-.045-.083-.144-.041-.276.125-.397.869-.589 1.023-1.2.464-1.835a16.04 16.04 0 0 0-1.53-1.564c-1.548-1.322-2.054-2.47-1.518-3.445.537-.974 1.398-1.79 2.584-2.447.211-.106.359-.083.442.068.09.143.041.276-.147.396-1.126.703-.9 1.715.68 3.037 1.427 1.194 2.058 2.32 1.892 3.377-.167 1.057-1.016 2.01-2.55 2.855ZM92.948 3.208c1.057-.28 2.028-.215 2.912.192.597.288 1.061.684 1.394 1.19a2.51 2.51 0 0 1 .396 1.7c-.068.627-.276 1.091-.623 1.394-.34.302-.62.536-.838.702-.22.166-.427.34-.624.521-.385.363-.415.688-.09.975 1.02.884 1.605 1.628 1.756 2.232.159.604.053 1.137-.317 1.598a21.976 21.976 0 0 1-1.643 1.813c-.574.566-1.145 1.14-1.711 1.722-.28.272-.45.257-.51-.045-.098-.416-.544-.778-1.337-1.088a39.49 39.49 0 0 0-2.493-.907c-.159-.06-.17-.173-.034-.34.204-.211.415-.423.634-.634.22-.212.439-.42.658-.623.34-.317.453-.597.34-.839-.106-.249-.306-.529-.6-.838-.741-.77-1.1-1.492-1.077-2.164a2.78 2.78 0 0 1 .736-1.78c.43-.475.914-.91 1.45-1.303.544-.4 1.058-.846 1.541-1.337.06-.052.14-.034.239.057 1.012.899 1.854 1.352 2.526 1.36.68.007 1.122-.193 1.326-.6.204-.416.185-.847-.057-1.292-.241-.454-.634-.828-1.178-1.122-.824-.408-1.726-.446-2.708-.114-.197.076-.314.034-.351-.124-.038-.159.056-.26.283-.306Zm-1.813 10.175c-.076.129-.053.227.068.295.536.249 1.072.494 1.609.736.536.242 1.076.476 1.62.703.378.166.756-.05 1.133-.646.469-.748-.15-1.73-1.858-2.946-.264-.159-.59-.083-.974.226l-1.598 1.632Zm1.563-2.357c.091.068.174.065.25-.011l2.107-2.062c.068-.076.087-.144.057-.204-.023-.068-.08-.106-.17-.114-.43-.045-.906-.211-1.428-.498a41.787 41.787 0 0 1-1.643-.963c-.256-.166-.585-.015-.985.453-.507.597-.51 1.167-.012 1.71a18.564 18.564 0 0 0 1.825 1.69ZM81.082 2.471A4.92 4.92 0 0 0 82.567.976c.12-.182.23-.182.328 0 .355.672.85 1.17 1.484 1.495.06.03.091.083.091.159 0 .635-.223 1.379-.668 2.232-.446.854-.877 1.556-1.292 2.108-.068.075-.144.094-.227.056-.113-.068-.147-.14-.102-.215.461-.71.646-1.431.556-2.164-.084-.74-.635-1.36-1.655-1.858-.204-.076-.204-.182 0-.318Zm-8.716 15.093c-.015-.181-.113-.317-.295-.408a3.235 3.235 0 0 1-.442-.272c-.868-.589-1.484-1.306-1.846-2.152a7.983 7.983 0 0 1-.601-2.709c-.09-2.152.491-3.792 1.745-4.917.446-.4.96-.725 1.541-.975a11.686 11.686 0 0 1 1.79-.623c.19-.038.329.057.42.283l1.631 3.83c.076.204.05.333-.08.386h-.022l-4.645 1.801c-.091.045-.129.117-.114.215.37 1.677.99 2.754 1.859 3.23.868.468 1.733.536 2.594.204.151-.068.246-.057.284.034.045.09.019.158-.08.204a35.4 35.4 0 0 0-1.756.951c-.552.325-1.046.665-1.484 1.02-.068.046-.17.06-.306.046-.129-.015-.193-.065-.193-.148Zm-1.054-6.402a.22.22 0 0 0 .08.147c.045.03.102.03.17 0l2.413-.906c.113-.045.147-.125.102-.238l-1.382-3.388c-.068-.166-.204-.189-.408-.068-.438.257-.737.842-.895 1.756a9.256 9.256 0 0 0-.08 2.697Zm-10.325 4.691a49.15 49.15 0 0 1-1.96.839c-.763.302-1.36.612-1.79.929-.159.106-.272.147-.34.125-.068-.023-.094-.087-.08-.193.008-.136-.052-.366-.18-.691a4.098 4.098 0 0 0-.443-.873c-.483-.702-.796-1.344-.94-1.926a16.523 16.523 0 0 1-.351-2.074c-.083-.77.087-1.5.51-2.186.43-.688.993-1.3 1.688-1.836.438-.332.85-.684 1.235-1.054a5.47 5.47 0 0 0 1.008-1.348c.129-.234.299-.242.51-.023 1.133 1.284 2.342 2.059 3.626 2.323.333.083.405.204.216.362-.695 1.02-1.005 2.063-.93 3.128a11.25 11.25 0 0 0 .737 3.218v.011l.011.011c.68 2.486.45 4.287-.69 5.405-1.134 1.126-2.26 1.745-3.377 1.859-1.934.189-3.215-.31-3.842-1.496-.143-.272-.147-.529-.011-.77a.86.86 0 0 1 .623-.431c.537-.09 1.009.257 1.417 1.042.559 1.126 1.374 1.47 2.447 1.031.922-.385 1.45-1.05 1.586-1.994.136-.944 0-2.028-.407-3.252 0-.015-.004-.026-.012-.034l-.011-.011c-.046-.113-.129-.144-.25-.09Zm.658-6.322c-.423-.174-.926-.442-1.507-.805-.582-.363-1.009-.668-1.28-.918l-.023-.011v-.023c-.272-.4-.514-.434-.726-.102-.8 1.194-1.117 2.512-.951 3.955.113.96.32 1.843.623 2.651.302.808.77 1.337 1.405 1.587l.011.01h.012c.423.114.97-.044 1.643-.475.075-.038.102-.11.079-.215a6.109 6.109 0 0 1-.363-2.64c.083-.9.469-1.813 1.156-2.742.068-.121.042-.212-.08-.272Zm-18.053 3.625c-.008 1.217.219 1.92.68 2.108.053.038.08.09.08.159 0 .06-.027.105-.08.136-.68.513-1.231 1.197-1.655 2.05a.205.205 0 0 1-.17.091.205.205 0 0 1-.17-.09c-.422-.854-.997-1.534-1.722-2.04-.045-.03-.068-.08-.068-.147 0-.068.027-.121.08-.159.49-.189.736-.891.736-2.107V9.394c0-.77-.143-1.243-.43-1.417-.333-.219-.605-.14-.816.238-.084.159-.178.197-.284.113-.105-.083-.102-.215.012-.396.219-.348.427-.703.623-1.065.204-.363.412-.725.623-1.088.121-.22.29-.264.51-.136l.011.011c1.11.56 1.776 1.243 1.995 2.051.015.083.053.132.113.148.06.015.12 0 .181-.046a62.6 62.6 0 0 0 1.28-1.099c.439-.385.737-.74.896-1.065.083-.196.219-.193.408.011.453.476.838.854 1.155 1.133.325.28.873.488 1.643.624.136.03.204.09.204.181.008.083-.037.14-.136.17-.196.075-.37.208-.52.397-.152.18-.227.487-.227.917v4.793c0 .77.143 1.243.43 1.417.333.204.6.12.805-.25.083-.143.177-.173.283-.09.113.075.113.204 0 .385-.227.355-.442.714-.646 1.076-.196.355-.396.71-.6 1.066-.137.211-.306.26-.51.147-1.375-.665-2.063-1.65-2.063-2.957l.012-5.802c0-.227-.057-.374-.17-.442h-.012v-.023l-.963-.793a.221.221 0 0 0-.26-.011l-1.179.918c-.053.038-.08.083-.08.136v4.51Zm-12.534 1.292.012-4.725c0-1.269-.23-1.971-.692-2.107-.052-.038-.079-.083-.079-.136 0-.06.027-.114.08-.159.672-.483 1.227-1.163 1.665-2.04a.16.16 0 0 1 .159-.102c.075 0 .132.034.17.102.4.87.974 1.545 1.722 2.029.053.045.08.102.08.17 0 .06-.03.105-.091.136-.499.143-.74.846-.726 2.107v3.989c0 .778.144 1.254.431 1.427.317.212.585.129.805-.249.083-.143.177-.174.283-.09.113.075.113.203 0 .385a18.5 18.5 0 0 0-.646 1.065 35.7 35.7 0 0 1-.6 1.065c-.129.219-.306.26-.533.125-1.126-.537-1.787-1.217-1.983-2.04-.015-.06-.06-.102-.136-.125-.075-.022-.128-.01-.159.034-.43.348-.86.714-1.291 1.1-.431.377-.726.725-.884 1.042-.129.181-.268.177-.42-.011-.415-.484-.823-.854-1.223-1.11-.393-.258-.918-.465-1.575-.624-.144-.053-.212-.117-.204-.193.007-.075.056-.132.147-.17a1.19 1.19 0 0 0 .51-.373c.159-.19.238-.5.238-.93V9.247c0-.77-.143-1.242-.43-1.416-.34-.204-.612-.121-.816.25-.084.143-.178.173-.284.09-.105-.083-.102-.215.012-.397.219-.34.426-.69.623-1.054.204-.362.412-.725.623-1.087.128-.227.298-.268.51-.125h.011c1.367.718 2.051 1.7 2.051 2.946l-.023 5.802c0 .219.057.366.17.441l.975.805c.076.068.162.076.26.023a79.11 79.11 0 0 1 1.19-.93c.046-.03.068-.079.068-.147Zm-26.993-.442c-.068.038-.14.076-.215.114l-.181.079a.268.268 0 0 1-.114.034c-.166 0-.249-.087-.249-.26 0-.091.042-.163.125-.216a29.027 29.027 0 0 0 3.626-2.39c1.231-.938 1.843-2.214 1.835-3.83-.007-1.013-.347-2.055-1.02-3.128C7.2 3.336 6.18 2.8 4.814 2.8c-.929 0-1.79.329-2.583.986-.793.65-1.19 1.378-1.19 2.187 0 .838.242 1.57.725 2.198.484.627 1.258 1.02 2.323 1.178.854.023 1.541-.155 2.062-.532.068-.053.148-.132.238-.238.098-.114.193-.17.283-.17.114 0 .186.049.216.147a.234.234 0 0 1-.057.25c-.174.188-.42.38-.736.577-.499.318-1.07.476-1.711.476-1.715.023-2.901-.396-3.558-1.258C.167 7.733-.097 6.618.03 5.26c.13-1.361.75-2.517 1.86-3.47C3.008.84 4.296.394 5.754.454 7 .507 7.997.775 8.745 1.26c.748.483 1.318 1.091 1.711 1.824.038.083.098.117.181.102.091 0 .144-.045.159-.136.212-.763.608-1.378 1.19-1.847C12.575.734 13.323.5 14.229.5c.869 0 1.628.28 2.278.838.65.552 1.122 1.45 1.416 2.697.22.823.525 1.228.918 1.212.159 0 .25.065.272.193.03.12-.03.22-.181.295l-2.561 1.19c-.083.045-.117.109-.102.192.007.083.057.136.147.159.9.204 1.689.695 2.368 1.473.688.77 1.032 1.71 1.032 2.821-.03 1.745-1.179 3.286-3.445 4.623-1.247.725-2.448 1.152-3.603 1.28-1.156.129-2.244.016-3.264-.34a6.942 6.942 0 0 1-2.991-2.05c-.824-.967-1.64-1.326-2.448-1.077Zm7.501-5.348 4.42-2.085c.068-.053.101-.106.101-.158a.187.187 0 0 0-.09-.17c-.514-.303-.899-.956-1.156-1.96-.204-.741-.46-1.342-.77-1.802-.31-.461-.763-.661-1.36-.6-.8.18-1.273.611-1.417 1.29-.135.68-.154 1.455-.056 2.324.166 1.397-.227 2.663-1.179 3.796a17.885 17.885 0 0 1-3.025 2.866c.68-.007 1.386.34 2.119 1.043.514.506 1.046.974 1.598 1.405a9.28 9.28 0 0 0 1.767 1.076c.778.37 1.556.514 2.334.43.778-.09 1.447-.498 2.006-1.223a2.989 2.989 0 0 0 .623-1.847c.015-.71-.249-1.424-.793-2.141-.536-.718-1.209-1.209-2.017-1.473-.8-.265-1.801-.36-3.003-.284-.166.008-.264-.053-.294-.181-.023-.136.041-.238.192-.306Z" fill="#0E0E0E"/></svg>