<svg width="39" height="39" fill="none" xmlns="http://www.w3.org/2000/svg"><path d="M3.933 18.737c-.218-.043-.625.691-.83.807.194.236.2.201.436.128.035-.21.784-.857.394-.934v-.001Z" fill="#B0B551"/><path d="M38.901 32.41c-.482-1.836-3.896-4.225-5.394-5.56-1.73-1.54-3.399-3.178-5.168-4.674-.839-.709-1.53-1.412-2.717-1.486 1.317-1.41 1.841-2.759 2.101-4.63.365-2.624.793-5.695-.22-8.194C23.218-2.726 2.176-2.973.397 9.276-.34 14.346-.452 17.86 3.711 21.5c3.56 3.114 8.19 4.157 12.928 3.692 1.413-.139 2.66-.481 3.987-.934a3.587 3.587 0 0 0 .365 3.001c3.095 3.268 5.802 7.262 8.926 10.46 3.692 3.78 9.942-1.66 8.983-5.31h.001Zm-3.64-3.14c.34.156.395.422.35.764-.425-.025-.362-.457-.35-.765Zm.35 1.274-.088 1.103.612-.254-.014.326c-.325.2-.866.16-.862.608l-.17-.007-.046-.164-.92.596c-.285-.347 1.08-.884 1.123-.948.171-.264-.38-1.297.364-1.26Zm.7 4.841c-.113.117-1.023-.924-1.041-.993-.046-.17.091-.26.21-.364.116.275.423.344.544.446.125.105.225.72.287.911Zm-2.935-.254c.453.605 1.388.889 1.446 1.698-.75-.206-1.698-.451-1.927-1.273l1.138.593c-.181-.338-.793-.567-.657-1.018Zm1.272-6.37c.284.096.303.504.31.765.004.085.053.224-.093.253-.343.07-.189-.85-.217-1.019Zm.043 1.698c.09.015.011.16.067.23.06.078.203.038.241.234.042.213.05.731-.135.895-.277.033-.06-.518-.13-.594-.187-.057-.599.41-.7.126-.116-.322.434-.282.518-.393.017-.022-.111-.407.14-.497Zm-.657-2.293c.32.152.362.544.349.849-.342-.165-.382-.517-.349-.85Zm-1.84-1.784c.089-.096.893.706.953.817.126.239.11.45.097.712-.308-.12-.278-.405-.262-.68-.235-.028-.222-.005-.306.17-.159-.192-.23-.264-.482-.17v-.849Zm-2.103-2.039c.35.36 1.844 1.434 1.925 1.828.03.144-.009.316.002.465-.439-.116-.732-.583-.702-1.019-.545.4-.704-.183-.614-.679l-.176.254-.127-.002c-.34-.213-.343-.48-.309-.847h.001Zm.038 1.103c.254-.229.433-.029.283.234-.015.027-.151.017-.15.065.004.108.14.2.172.345.056.246.079.548.095.8.282.061.242-.333.263-.51.513.229.321.738.35 1.19a.403.403 0 0 0 .244-.233c.137-.395-.085-.422.632-.446l-.01.332-.253.008c.237.243.316.414.264.763l.262-.133c.201.174.36.367.351.643.278.073.187-.247.26-.368l.264-.056c.04.278-.015.358-.262.466.348.425 1.013.688.877 1.317l.524-.425c.01.214.06.31-.175.381.28.186.294.411.262.723l-.613-.51v1.699c0 .022-.28.097-.35.254v-1.954c-.205-.01-.155-.029-.176.126-.062.472.211 1.068-.35 1.319V30.2l-.263.085-.174-.255c-.06.19-.107.523-.351.51.357.348.333.892.348 1.358-.868-.57-.46-2.003-.656-2.887-.154.114-.198.19-.224.377-.073.528.008 1.302.092 1.83-.013.015-.318-.174-.328-.19-.26-.432-.162-2.198-.285-2.783-.271.103-.287.345-.263.595-.43-.246-.261-1.072-.35-1.528-.394.162-.239.6-.262.934-.212-.118-.248-.328-.525-.17v-1.358c-.145-.03-.182.037-.253.14-.264.382.364 1.706.165 2.238-.423-.254-.438-1.024-.518-1.502-.02-.122.056-.25.044-.327-.016-.105-.247-.231-.296-.44-.081-.346.014-.836-.107-1.213-.149.03-.178.17-.181.297-.023.679.291 1.495.356 2.211.009.098.004.197.001.295-.04.053-.497-.503-.523-.638-.17-.87 0-1.937-.353-2.758l-.18.384.18 1.994-.218-.152-.218.151c.069-.847-.252-1.76-.271-2.59-.02-.867.53-.8.534.041l.218-.252c.336.222.34.476.307.847l.218-.254c.238.272.635.44.57.849.453-.258.24-.488.263-.934.448.194.363.709.438 1.104.355-.177.343-.434.3-.765l.001.001Zm3.729 7.732h-.262l-.087-.935c.423.19.368.545.35.935h-.001ZM31.23 34.62l.176-2.844.26-.299-.086 2.038.437-.679c.032.042-.223.771-.279.88-.059.112-.228.121-.247.2-.058.239.122.571-.261.704Zm-.177-4.078c-.428-.23-.249-1.005-.349-1.444.446.273.328.998.349 1.445Zm-1.402-2.249.174-.043c.03.026.382.592.402.674.054.221.155 1.184.044 1.328-.079.103-.312.165-.401.291l.301-.54c-.657-.444-.34-1.053-.52-1.71Zm-.43 3.136c-.023-.162-.18-.12-.178-.159.014-.269.273-.325.326-.445.075-.173-.028-.597.281-.537.132.388-.119.619-.165.987-.064.52-.004 1.157-.102 1.685-.021.113-.119.44-.257.471-.126-.627.173-1.42.094-2.002Zm-.91-2.228c.1-.27.052-.652.375-.782l-.087.339.308-.169c.163.234-.19.37-.285.574-.305.656.07 1.768-.547 2.229l.173-1.7c-.435.228.027-.392.063-.49Zm-.236-5.623c.425.024.362.457.349.763-.38.003-.236-.526-.35-.763Zm.613.509c.305.293.628.562.524 1.019-.526-.123-.583-.57-.524-1.02Zm-2.104-2.845c1 .377 1.803 1.515 2.584 2.253.389.367.895.44.658 1.102-.385-.155-.393-.282-.35-.68l-.383.164c-.28-.198-.475-.392-.406-.76l-.53.05-.082-.475h-.263v.85c-.608-.238.111-1.485-.613-1.444l.087 1.19h-.35c-.083-.746.428-2.215-.876-1.868l-.088-.425c.215-.065.403-.037.613.043h-.001Zm.705-6.029c-.01.157-.086.995-.113 1.04-.093.159-.847.554-.46.782l.393-.337c-.006.238-.188.485-.437.511l.174.508-.348-.17-.24.38c.045.209.11.244.327.216-.108.189-.213.296-.09.508-.514-.221-.534.802-1.05.85l.873-1.232-.258-.213c-.01.123-.54.95-.615.553l1.137-1.447c.124-.408-.55.28-.61.343-.185.196-.217.489-.527.551-.084-.088.392-.587.436-.723.092-.287-.465.12-.348-.167.137-.336.991-1.142 1.261-1.496.172-.224.343-.478.403-.756.146-.023.096.207.09.3h.002Zm-5.7 4.287-.523-.466.954-.375.271.502c-.083.11-.764.09-.702.34ZM5.203 16.402c-2.803-2.44-3.435-5.17-1.174-8.277 1.812-2.489 5.352-4.461 8.493-4.678 2.174-.15 4.62.08 6.572 1.016.036-.266.735-.54.742-.635.012-.176-.211-.07-.29-.027-.237.131-.381.421-.672.495-.082-.092.233-.53.311-.597.154-.133.573.07.476-.507-.037-.041-.727.417-.782.472a.572.572 0 0 0-.183.376c-.212.026-.14.002-.185-.12-.225-.613 1.283-.834 1.15-1.494.222-.013.407.089.58.206.228.155.192.372.21.39.022.022.27-.085.385-.079.35.018.698.313.68.663l.249.01-.175.594c.348-.003.303-.253.354-.465.023-.1-.07-.156.126-.13l.663.639-.18.465c.21.023.332-.175.353-.34.08-.058 1.207.847.97 1.184l.255.006-.263.509.351-.339c.42.046.33.553.262.849l.508-.153c.24.248.204.528.283.771.046.14.349 0-.092.527l.262-.042c.097.37-.43.296-.348.68.41-.137.491-.356.438-.765.563.346-.105 1.37-.002 1.954-.482-.207-.1-.638-.175-1.02-.219-.01-.384.134-.453.325l-.16-.026c.183.543.57.998.804 1.514.76 1.67.761 3.51-.38 5.011-.14.185-1.228 1.365-1.344 1.415-.039.017-.144.022-.13-.041.258-.285.755-.662.744-1.062-1.391 1.334-3.146 2.446-5.038 2.973-.022.151.196.084.285.065.59-.124 1.157-.353 1.728-.534.086-.028.282-.116.264.043-5.152 2.547-12.126 1.96-16.474-1.824l.002.003Zm14.284 3.778-.729.176-.322-.515c.456-.018.919-.261 1.051.339Zm-8.938 0c-.58-.025-1.133-.194-1.138-.848.031-.032.806.23.855.276.03.029.313.547.283.572ZM3.848 6.533c.23.1.188.196.129.396l-.437-.134-.35.347.26.084c-.14.073-.344.5-.372.526-.064.06-.237.056-.378.19-.148.14-.306.49-.389.686-.183-.068-.294-.228-.262-.424l.314-.081c-.271-.448 1.18-1.63 1.485-1.59Zm-.901-.179c.172-.116.736-.165.9-.528l-.074.312-1.109.876c-.032-.115.244-.633.283-.66ZM2.05 8.63l.218.254c.236-.219.496-.415.484-.764l.158.063.146-.148.22.55-.205.117-.234-.122c-.218.147-.259.45-.378.616-.048.066-.182.079-.234.155l.22.118.395-.586.167.204c-.393.215-.195.792-.593.74l-.103.585c-.425-.025-.362-.458-.348-.765l.262.042C2.04 9.326 2.1 9.02 2.05 8.627v.002Zm14.941-6.796.044.17.35-.17-.175.594.482-.424.218.169v-.34c.157-.201.288.246-.04.51-.164.131-.552.256-.658.384-.153.184-.117.637-.527.635l.174-.297-.261.043.174-.51c-.096-.1-.448.395-.438.043.357-.13.14-.39.484-.38-.032-.205-.01-.3.173-.427Zm1.709.17.602.397c.07.257-.166.224-.225.307-.079.113-.088.267-.206.354-.104.077-.631.23-.69.31l.08.416h-.263l.087-.254-.437.17.086-.51-.261.17c-.257-.347.975-.91 1.232-1.063l-.005-.296v-.001Zm-2.762.594-.086-.17-.483.254c.12-.415.518-.461.784-.64.111-.076.56-.525.619-.463-.045.547-.692.52-.833 1.019Zm.134-.717c-.369-.254-1.424 1.038-1.578.887-.03-.149.079-.21.174-.298.425-.397 1.04-.76 1.49-1.145l-.086.556Zm-1.538.294c-.08.058-.099.19-.148.225-.018.013-.254.008-.331.113-.032-.033.221-.525.257-.551.045-.032.179.04.261-.004.31-.163.646-.544.97-.719.158.171-.88.841-1.01.936h.001Zm-.303-.382c-.194.157-.462.395-.702.465-.114-.109.65-.644.706-.718.075-.099.075-.289.086-.3.008-.007.136.073.2.057.127-.033.162-.18.32-.143-.073.224-.423.486-.61.639Zm-1.14.126c-.159-.166.832-.7.963-.765.16.166-.831.7-.962.765ZM26.848 14.7l-.393.722c-.502-.42-.322-.624-.133-1.13-.01-.088.121-.072.177-.057-.09-.333.123-.716.306-1.018l.453.548-.234.81c-.242.027-.332-.29-.525-.34.058.214.136.377.35.465Zm-.544.935-.549.807-.374-.552c.198-.092.366-.87.591-.72l.332.465Zm.194-3.525-.53-1.914.18-1.398c.144.024.161.163.2.272.33.907.26 2.1.149 3.04Zm-5.65 6.974.392.334-.052.174-.592.237-.318-.496.572-.249h-.001Zm1.363-.549.653-.463.383.452c-.34.326-.94.72-1.036.01v.001Zm1.309 2.919c-.584.278-.666-.361-1.05-.636.486-.546.747.305 1.05.636Zm-.34-3.642.595-.26.27.502c-.497.29-.778.466-.867-.243h.001Zm1.26-.942.297.453-.603.565c-.253-.561-.142-.642.306-1.018Zm.708-.764c.144-.03.258.207.336.306.038.047.191-.006.137.156l-.643.548c-.602-.346-.154-.652.17-1.01Zm2.226-2.636c-.309-.238-.608-.57-.525-.976l.174-.041c.13.375.465.566.351 1.018Zm.176-.68c-.211.047-.142-.037-.195-.111-.32-.447-.4-.674-.33-1.248.63.399.674.666.525 1.36Zm.174-1.018-.594-.485-.104-1.298c.603.468.8 1.046.698 1.784v-.001ZM10.284.683c4.577-.907 9.805.17 13.452 3.021 2.065 1.615 3.758 3.99 3.9 6.623-.724-.553-.76-1.313-1.072-2.06C23.977 2.08 16.016-.387 9.674 1.282.25 3.76-1.372 13.449 7.249 18.327c.597.338 1.643.592 1.917 1.2.031.069.15.18.024.23-.496-.18-1-.385-1.476-.607C-2.635 14.34-.778 2.876 10.284.683Zm-8.32 18.053-.088-.34.252.082c.151-.368.467-.385.272-.846l-.57.68c-.185-.372.922-1.181.9-1.403l-.21-.206-.251.164c-.165-.12.393-.588.482-.509l.089.595.261-.086-.53.808.048.13c.297.08.23.244.219.506l-.218-.165c-.12 0-.385.662-.656.59Zm7.272 5.268v-.256a.591.591 0 0 1-.368.07c-.236-.025-1.106-.364-1.357-.477-.878-.396-1.62-1.155-2.569-1.292l.082-.246c-.325-.203-1.005-.639-1.14-.977-.181-.456-.115-.877.006-1.324a1.248 1.248 0 0 1-.35.17c-.034.205.026.466 0 .68-.261-.157-.489-.358-.438-.68l-.261.085c-.216-.531.293-.632.261-1.105l-.614.763c-.137.006-.174-.388-.16-.449.081-.345 1.353-.987.95-1.588l.35-.085c.041.05-.184.51.044.508.313-.004.176-.346.262-.507.426.308.403.428.509.868.04.169.261.236.015.493-.072.075-.239-.003-.303.125l.13.295c.353-.325.63-.496.614-1.017 1.093.78 2.272 1.48 3.534 1.971l.016.238.26-.17-.348.678c.212-.146.394-.328.614-.466.13-.082.092-.209.26 0l-.436.34.437.127c-.051.352-.488.35-.263.764-.238-.172-.664.258-.702.466-.068.363.362-.14.471-.12l.231.248c-.22-.207-.849.24-.85.383 0 .044.118.115.118.17 0 .09-.198.144-.143.296l1.4-1.233-.133-.212-.392.128.883-.76c.204-.177.29-.632.52-.048l-.255-.078c.027.284-.66.541-.621.715.1.449.616-.292.788-.17-.215.365-.77.544-.876.977.183.163.997-.765 1.184-.848.045-.02.148-.016.13.04l-1.971 1.827c-.168-.085.298-.369-.001-.424-.215-.04-.352.172-.476.297.159.19.262.315.528.25l.082.303c.23-.065.332-.368.466-.482.067-.056.218-.056.325-.15.458-.4.872-.86 1.355-1.237.142.085-.03.189-.088.256-.1.116-.855.738-.745.848l.832-.594.043.126c-.495.31-1.094 1.139-1.529 1.407-.108.067-.174.106-.31.08l-.001.003Zm.964.169-.35-.126 1.488-1.403c.06.496-1.07 1.015-1.186 1.278-.04.092.021.17.049.251H10.2Zm.35 0c-.062-.059.428-.611.49-.67.07-.064.402-.332.473-.263.091.089-.755.947-.963.934v-.001Zm.088-4.416c.423.058 1.013.16 1.05.678-.572.022-.94-.09-1.05-.678Zm1.415.835-.276-.58c.523-.004.898.18 1.05.677l-.774-.097Zm.775-.497.705.124.17.47c-.564.1-.743-.075-.875-.594Zm1.152.669-.188-.584c.514.14 1.017-.066 1.138.595l-.951-.011Zm.951-.497c.423-.086.656.208.876.508-.447.177-.843-.031-.876-.508Zm1.402-.086c.461-.1.556.208.789.508-.54.1-.574-.1-.789-.508Zm.976.502-.274-.587a.668.668 0 0 1 .787.51l-.513.077Zm.426-.671c.386-.152.686.03.789.423-.455.158-.606-.035-.789-.423Zm.35 2.037.65-1.03c-.005-.118.16-.24.226-.159.115.141-.448.88-.578 1.012-.09.09-.126.215-.297.177Zm1.227-.763c-.22.352-.423.787-.787 1.019-.04-.2.63-1.165.787-1.019Zm-.613 3.226.875-.934c-.105.366-.44.935-.875.934Zm-.086-.51c.147-.304.367-.756.575-1.013.095-.118.209-.283.388-.26-.051.163-.826 1.418-.963 1.274Zm.259-1.233c-.1.101-.173.244-.348.214l.879-1.229.348-.214c.056.05-.786 1.133-.88 1.228Zm.44-3.097.639-.16.412.412c-.516.188-.74.266-1.05-.252Zm.96 2.662c.07-.763.56-1.283 1.318-1.474l.176 1.104.395-.253c.203.19-.403.67-.528.66-.09-.01-.254-.334-.48-.235-.127.326-.135.508.173.722-.562.457-.673-.28-1.054-.523v-.001Zm.882 3.708c-.566-1.6.385-3.312 1.818-4.14.324-.187 2.359-1.07 2.562-.872v.425c-.238.01-.318.052-.395-.17l-.187.175c-.496-.158-.488.065-.816.213-.36.162-.729.342-1.104.454-.25.232-.08.79-.129 1.111l-.263-.679c-.306.147-.134.587-.175.85-.327-.125-.045-.445-.088-.68-.742.64-.889 1.5-.88 2.425.005.432.304.662-.344.888Zm2.885-.13c.334-.425.087-1.138.53-1.4l.002.51.26-.17c.09.29-.278.478-.331.655-.085.279-.006.607-.155.958-.057.134.011.209-.214.17-.05-.293.282-.624-.093-.724h.001Zm-.433-1.569c.043.328-.31.457-.478.684-.125.166-.1.424-.31.506.083-.484.36-.924.787-1.189Zm-.525-.425v-.765l.425.266c.125.208-.345.588-.425.499Zm1.05.34c-.21.576-.035 1.48-.524 1.87.101-.583.033-1.467.524-1.87Zm-1.412-.23-.338.314c-.047-.326-.241-.671.173-.849l.165.535Zm-.865.994c-.038-.16-.095-.268-.074-.444.01-.087.122-.469.247-.49l.075.8-.248.134Zm.351 2.634c.12.108.395.161.478.25.036.04-.014.192.054.286.327.45.957.731 1.044 1.332l-1.576-1.87v.002Zm1.928 2.335.17-.164-.345-.728c.387.454.693 1.056.874 1.614l-.7-.723v.001Zm1.577-1.061.349-2.633c-.941.321-.384 1.137-.92 1.698l.13-1.018c-.399.114-.332.422-.568.679-.083-.032-.051-.218-.047-.3.043-.865.44-2.012.44-2.8 0-.26-.358-1.278-.26-1.4.354-.073.067.442.218.593.409-.217.031-.733.394-.933.114.588.106 1.255.255 1.831.038.146.179.129.176.16-.014.176-.4 1.36-.342 1.405.326-.002.56-.388.597-.659.076-.554-.523-1.94-.497-2.615.005-.141.096-.333.25-.378.076.4.047.822.098 1.222.124.972.392 1.609.273 2.58-.08.658-.143 1.644-.304 2.252-.033.123-.101.282-.242.317v-.001Zm1.094 1.359.219-2.208-.566.683c-.118.286.042.872-.398.973.3-.909.278-1.94.477-2.85.064-.293.3-.506.314-.632.028-.255-.349-1.495-.414-1.893a19.814 19.814 0 0 1-.206-1.92l.355-.136.088 1.869.262-.085.264 2.504-.35-.212-.263 1.954.877-1.062c-.217.807-.198 1.752-.356 2.544-.034.173-.189.338-.303.471Zm.57.595c.042-.749.075-1.588.185-2.326.028-.19.062-.59.34-.561-.18.805-.098 1.781-.282 2.572-.027.12-.108.283-.243.316v-.001Zm.439 2.548c.356.365.551 1.028.612 1.529-.33-.394-.463-1.039-.612-1.529Zm.788-.85c.072-.891.114-1.859.288-2.735.05-.252.06-.625.324-.747-.222.992-.175 2.12-.354 3.096-.028.148-.09.336-.257.387Zm.352 2.464c.454.29.748.767.874 1.274-.427-.317-.867-.706-.874-1.274Zm1.926-1.147c0 .015-.119.134-.176.128v-2.294c-.966.425-.16 1.402-.787 1.954.062-.413-.069-.933-.045-1.318.01-.148.107-.715.142-.923.048-.285.098-.886.429-.944l-.176 1.316.787-.85c.183.358-.174.772-.174 1.147v1.784Zm.177 3.566c-.12-.591.338-1.114.325-1.274-.008-.092-.439-.386-.326-.635.318-.02.257.358.394.509.105-.182.39-.502.442-.675.217-.708.119-2.128.22-2.93.022-.168.153-.303.172-.471l.087.338.306-.169c.171.271-.254.374-.305.638-.128.656-.017 1.42-.177 2.08l.687-.566.014-.452-.438.127c.055-.18.34-.352.393-.469.129-.278-.09-.644.264-.847-.05.253.183.533.203.653.014.085-.29.477-.158.705.028.038.736-.553.874-.211l-.913.642-.489.843-.13-.168c-.124.049-.423.532-.446.674-.025.158.065.302.044.458-.08.611-.548.89-.076 1.454l1.222.556c-.494.03-2.082-.288-2.189-.808v-.002Zm2.673.813-.57-.428c.481-.082.802.1 1.225.255-.047.153-.54.194-.655.174Zm.917-.598.744-.255.14.213c.04.4-1.073.725-.884.042Zm1.402-1.615c-.1.098-1.716-.933-1.488-1.359.121.228 1.735 1.115 1.488 1.359Zm.526.552c-.183.248-.115.624-.436.637-.17-.27.72-1.449.875-1.273.213.241-.323.48-.439.636Zm.44-1.656c.078-.53-.553-1.165-.22-1.613.158.194.049.66.154.83.023.037.151.048.188.107.132.21.139.557-.122.676Zm1.093.509-.13-.34-.262.17c.247-.34.096-.585.088-.934l-.175.254v-1.528c.124.01.154.381.163.477.028.266.004.531.01.797.002-.005.082.02.092-.05.107-.796-.004-1.456-.09-2.244l.442.14.266 1.686-.404 1.57v.002Z" fill="#B0B551"/><path d="M20.715 6.462c-.111-.09-.688-.547-.79-.466.796.767 1.362 1.7 1.754 2.717.101-.022.225-.407.236-.479.014-.086-.074-.19-.061-.285.498.586.567 1.57.723 2.314.038.18.183.351.219.552.065.362-.004.76.022 1.126.172-.124.376-.553.417-.741.05-.234-.032-.49.066-.7.067-.147 1.054-.889.918-1.021-.455.127-.586.82-1.138.85-.309-1.45-1.184-2.907-2.365-3.867Zm.349 11.256c-.585.103-1.2.032-1.784.095-.864.093-1.772.5-2.632.677-.894.185-1.758.373-2.68.374.11.1.026.196.214.22 1.306.158 2.939-.366 4.234-.585.867-.148 1.203-.099 2.12-.486.151-.064.456-.156.528-.294Zm-.659-1.024 1.636-3 .383-.309.13.254.359-.795-.357-.224-.35.68c.026-.162-.057-.448.02-.576.056-.091.355-.175.4-.505.018-.133-.084-.638-.244-.703-.086.862-.403 1.725-.802 2.494-.153.297-.83 1.437-1.035 1.607-.154.13-.38.09-.534.27-.044.053-.568 1.106-.521 1.15l.916-.343h-.001Zm.06-4.4A6.586 6.586 0 0 1 19.4 14.15c.171.151.873-.89 1.086-.942 1.398-1.3 1.07-2.93.665-4.579-.504.335.018 1.002.004 1.567-.02.755-.466 1.442-.53 2.171l-.16-.072ZM23.08 6.25l-.35.086-.045-.257c-.204-.066-.066.25-.26.17-.237-.099-.01-.392-.046-.423l-.35.17.087-.935-.523.176.085.163-.35-.128.263-.465.094.16.33-.087.012-.498-.92.764c-.12.025-.165-.006-.13-.125.092-.3.576-.451.524-.809-.272.242-.49.393-.876.426l.087.338c-.136.005-.146-.22-.185-.246-.031-.02-.236.117-.34.075l.35-.508-.525.254.043-.423-.133.423-.262-.085.044-.256-.481.34c1.452.414 2.547 1.583 3.854 2.295V6.25h.003ZM11.584 18.715c-.323-.11-.697-.17-1.034-.234.143-.24.598.007.783.048.09.02.287.113.267-.046-.455-.114-.89-.399-1.316-.558-.816-.306-1.975-.562-2.63-1.273-.077-.084.004-.188-.01-.197-.04-.031-.49-.141-.6-.18l.263.298-.35-.042c.088.08.23.364.28.4.026.02.162-.042.272.03 1.39.923 2.513 1.73 4.266 1.947.043-.236-.05-.144-.191-.191v-.002Zm13.073-6.688-.174-.042c-.16 1.073-.465 2.133-1.053 3.056.11.052.286-.184.349-.256.3-.342.555-.761.79-1.144.32-1.06.48-2.288-.043-3.313-.063.566-.142 1.182.13 1.7v-.001Zm.256 1.308c.015-.086.07-.312-.08-.29.03.27-.16.427-.263.595-.106.349-.225.601-.35.934.32-.23.629-.861.693-1.239ZM7.833 8.543c-1.406.7-1.566 2.591-1.092 3.904.035.096.094.343.215.343-.164-1.032-.084-2.163.31-3.141.066-.166.613-1.055.567-1.106Zm2.542-2.463c.818-.06 1.456-.603 2.192-.89 1.102-.43 2.415-.676 3.592-.468-.198.395.134.463.352.722.129.153-.076.316.389.386.08.012.336.05.309-.088-.436-.042-.691-.48-.963-.764.279.013.685.03.924.165.13.073.966 1.07 1.09.938.03-.47-.613-.543-.788-.933.392.026.771.216 1.134.302.088.02.288.111.267-.046l-1.52-.424c-.102-.034-.035-.179-.075-.233-.052-.071-1.079-.265-1.254-.278-1.527-.116-3.877.597-5.213 1.314-.13.07-.387.168-.437.298l.001-.002Z" fill="#B0B551"/><path d="M17.869 14.746c-.408.379-1.005.67-1.36 1.145.078.122.266-.04.342-.093.496-.345 1.382-1.103 1.85-1.52.231-.209-.1-.047-.089-.214 1.31-.706 1.744-2.176 1.664-3.568l-.436.638.173.04c.14.396.022.71 0 1.105l-.349-.594c.035.436-.357.77-.484 1.103-.097.255-.069.65-.227.883-.127.19-.642.468-.825.645-.131.125-.128.308-.258.428l-.001.002Zm.742 1.4c.153.107.543-.325.652-.473a2.15 2.15 0 0 0 .313-.674l.35.134c.526-.666 1.184-1.206 1.313-2.088-.576.55-.966 1.405-1.71 1.783-.24.122.07-.252-.172-.168-.369.129-.984.416-1.009.849l.962-.34c-.058.424-.411.697-.7.977h.002Zm5.257-5.734c-.33.194-.118.717-.174 1.02.408-.253-.046.511-.083.642-.138.481-.175 1.038-.31 1.483-.164.538-.586 1.141-.745 1.697.396-.146.367-.488.507-.739.747-1.34 1.131-2.547.805-4.103Zm-16.185-.274c.079-.453.252-.886.325-1.34-.459.405-.427 1.141-.525 1.698l-.173-.424-.152 1.547.325 1.085c.025-.431-.036-.881.007-1.31.034-.325.133-.914.193-1.257v.001Zm-.725 5.286.57-.424.086.253c.224-.27 1.718-1.108 1.712-1.316l-.177-.085.175-.211-.313.079-1.747 1.276-.306-.252c-.05.154.156.274.147.383-.008.09-.201.143-.147.297Zm12.271-8.448.258-.046c-.196.475.565.836.616 1.358.18.163.324-.497.523-.509-.177.44.054.549.177.935.048.034.171-.132.199-.196.161-.385-1.108-1.53-1.488-1.75l-.902-.347.616.555h.001ZM9.513 8.6l1.3-1.245c-.642-.022-1.195.633-1.526 1.112-.354.51-.691 1.069-.49 1.69l.716-1.556Z" fill="#B0B551"/><path d="M9.497 7.61c-.185-.039-.2.09-.277.196-.623.844-1.185 1.544-1.299 2.656-.028.27.176.657.087.97l-.175-.043.352.976c.167.018.057-.165.045-.255-.203-1.536-.176-2.111.61-3.483.086-.15.726-.952.659-1.017h-.002Zm-3.768 5.52-.088-1.529c-.514.422.036 1.388-.524 1.7-.077-.734.107-1.419.26-2.124-.183.048-.158.26-.258.388-.065.084-.245.09-.268.181-.233.91.388 2.121 1.14 2.659-.019-.444-.15-.886-.436-1.233l.173-.04v-.001Zm4.689.238-.655-1.002c-.155.442.217.788.432 1.148-.234.259-.726.293-.607.72l.658-.419.479.589c.155-.31-.125-.463-.248-.723l.775-.72-.833.407h-.001Zm1.448 3.88c-.28.177-.827-.06-1.141.001.257.041.254.353.274.369.02.017.34.155.448.208.79.387.682-.166 1.03-.703-.59-.202-.43.01-.611.125Zm9.96-1.513c.174-.15.514-.656.63-.874.228-.426.498-1.094.536-1.56l-1.488 2.421c-.073.245.253.071.322.013Zm-1.199 1.302 1.261-.26.184.176c.253-.36.685-.442.833-.933l-1.024.324-1.255.694Zm-6.222 1.019-.436-.296.436-.466-.833.593c-.1-.178-.235-.363-.47-.325-.004.09-.048.106-.1.155.014.051-.005.125.039.173l1.364.166Z" fill="#B0B551"/><path d="m14.317 18.396-1.313-.302-.263.048c-.078-.095.188-.353.262-.425-.074-.28.002-.314-.44-.389-.1.158-.463.725-.262.857a6.306 6.306 0 0 0 2.016.212v-.001ZM4.988 9.31c-.38.876-.672 1.798-.664 2.762l.18.804v-1.402c0-.056.101-.534.126-.642.153-.657.602-1.296.663-1.99l-.305.468Zm13.816 3.455c.146-.241.734-1.196.772-1.376.072-.34-.052-.866 0-1.231-.117.052-.278.402-.308.508-.213.734-.196 1.552-.657 2.252.062.118.168-.112.193-.152v-.001ZM3.189 11.048c-.004-.102.065-.316-.087-.295-.326.956-.1 2.257.524 3.057 0-.293-.215-.54-.241-.828-.058-.646-.173-1.26-.196-1.934Zm3.329 2.932c-.321-.839-.678-1.831-.505-2.742.081-.423.498-.923.375-1.42l-.131.466-.175-.043.086.427-.174-.086c-.07 1.066-.383 2.612.524 3.398Zm15.511-4.333v1.317l-.525 1.996c.125-.002.172-.242.215-.342.125-.297.237-.645.332-.954.026-.086.147-.161.154-.19.073-.288 0-1.159 0-1.529 0-.051-.122-.191-.09-.297h-.086Z" fill="#B0B551"/><path d="M7.482 14.574c-.253-.484.301-.354.352-.764l-.563.253-.663-.932.43 1.053c-.309.309-.794.476-.957.9.234.061.207-.045.29-.107.108-.081.747-.641.807-.64l.304.237Zm7.155-7.037c-.77.396-1.613 1.228-2.42 1.643.139.197.19.073.34-.008.827-.447 1.753-1.138 2.462-1.733-.147-.023-.257.034-.381.098h-.001ZM9.76 5.486c-.251-.018-.47.2-.654.341-.88.676-1.773 1.542-2.587 2.29l3.242-2.63Zm7.1 8.834c-.263-.015-.505.229-.703.381-.41.314-.98.797-1.36 1.146-.08.074-.481.418-.39.511.845-.64 1.75-1.248 2.452-2.037Zm-4.033 2.207c-.379-.485-1.133-.471-1.538-.93l-.3.168.727.523c.364.096.735.353 1.111.238ZM16.45 7.68l.321-.326c-.68.277-1.495.656-2.095 1.07-.14.096-.383.162-.358.374L16.45 7.68Zm-6.864-.92c-.774.255-1.445 1.054-2.015 1.612.769-.348 1.453-1 2.015-1.612Zm9.289 1.529c-.116.593.414 1.225.35 1.869.535-.357.027-1.495-.35-1.87Zm-2.012 9.474c.27-.192.858-.761 1.136-1.022.094-.088.204-.149.173-.298-.16-.15-1.341.973-1.489 1.147-.081.096-.212.137-.174.297.177.036.234-.038.354-.124Zm-.486 1.823c.24 0 .788-.218 1.076-.23l.676-.28-3.373.51h1.621Zm3.46-3.652c-.453.417-.969.73-1.49 1.063-.101.065-.226-.02-.173.21.702-.19 1.542-.475 1.663-1.274Zm2.526-1.882c.008-.02-.053-.434-.158-.411l-1.315 2.462c.157.031.219-.073.301-.175.309-.377.756-1.33 1.014-1.803.031-.057.155-.063.158-.073Zm-5.241-.242c.648-.096 1.241-.537 1.313-1.189-.548.277-.926.734-1.313 1.188Zm8.674-1.826-.175-.977-.265.212.179 1.571.261-.806ZM13.705 7.863c.272.009.51-.212.728-.355.463-.3 1.019-.683 1.374-1.087-.291.01-.571.276-.816.439-.447.296-.935.608-1.286 1.003Zm-7.8.594c.248-.625.953-.991 1.052-1.698-.525.376-.91.83-1.097 1.443-.025.085-.122.272.045.255Zm18.227-1.315-.349.422.26.214c-.082-.486.498-.565.672-.792.068-.088.116-.282.117-.397l-.307.255-.172-.17c-.222.195-.638.243-.57.595l.35-.127Zm-7.494 8.025.747-.677c-.175-.04-.235.043-.355.123-.427.284-1.22.9-1.614 1.237-.108.092-.25.175-.22.337l1.443-1.021h-.001ZM6.432 9.563c.472-.506.76-1.203 1.138-1.783-.302-.277-1.2 1.52-1.138 1.783Zm16.124-1.699.613 1.529c.66-.359-.202-1.252-.613-1.529Zm-9.881-3.08 1.291-.402-1.245.108-1.207.4 1.16-.106ZM5.028 9.052c.047-.57.76-1.106.922-1.535.051-.134-.025-.25.007-.335.054-.14.388-.319.298-.592-.202.242-.838.773-.921 1.026-.056.17.042.272.023.366-.021.108-.206.199-.26.332-.055.135-.264.66-.069.74v-.002Zm10.079-1.528c.163.036.242-.048.363-.114.266-.145.86-.533 1.102-.716.107-.08.238-.099.199-.274l-1.168.608-.496.496ZM13.862 5.51c-.099.02-.348.017-.333.146h1.928c-.226-.443-1.152-.228-1.595-.145Zm-3.095-.792c.321-.09.652-.157.97-.249.117-.034.271-.008.302-.173-.556.062-1.133.22-1.665.382-.204.062-.578.125-.7.296.456.113.724-.15 1.093-.256Zm-1.445 6.204V9.308l-.24.66c0 .293-.19.94.24.954Zm-1.139 2.803.074-.53-.423-.999c.008.473-.028 1.175.349 1.529Zm.702-8.324c-.352.004-.797.398-1.052.635-.102.094-.778.81-.7.893L8.886 5.4Zm3.418 2.547c.355-.129.748-.34 1.077-.528.138-.08.376-.124.324-.32-.213-.043-1.608.654-1.402.848ZM9.41 11.177c-.536.022-.05 1.053.175 1.273.193-.458-.291-.788-.174-1.273Zm4.119 4.079c-.465-.13-.707-.431-1.227-.256l1.087.511.139-.256v.001Zm-3.506-4.504-.248.444.423.914a2.523 2.523 0 0 0-.094-.784c-.016-.066-.142-.071-.146-.08-.023-.054.129-.359.065-.493v-.001Zm13.496 5.011c.056.058.742-.485.758-.527.03-.078-.008-.313-.014-.406-.253.291-.695.525-.744.934Zm-8.325-6.711c.23-.103.536-.22.748-.335.12-.066.254-.072.216-.258-.157-.128-1.128.438-.964.594Zm-2.454-.934c.186.069 1.142-.427.964-.593-.048-.045-.905.441-.963.593ZM4.417 20.35c.335-.108.224-.6.612-.51-.144-.931-.84.002-.612.51Z" fill="#B0B551"/><path d="m4.472 20.514-.406-.334c-.04.378.454.44.35.85.276-.05.289-.398.365-.493.015-.019.19.083.247-.06l-.218-.21-.339.247Z" fill="#B0B551"/></svg>